<?xml version="1.0" encoding="UTF-8"?>
<svg xmlns="http://www.w3.org/2000/svg" version="1.1" viewBox="0 0 154.7 25.25">
  <!-- Generator: Adobe Illustrator 29.6.1, SVG Export Plug-In . SVG Version: 2.1.1 Build 9)  -->
  <defs>
    <style>
      .st0 {
        fill: #f17836;
      }

      .st1 {
        isolation: isolate;
      }

      .st2 {
        fill: #fff3ed;
        mix-blend-mode: multiply;
      }

      .st3, .st4 {
        fill: #115190;
      }

      .st3, .st5 {
        display: none;
      }

      .st6 {
        fill: #b4bad8;
      }

      .st7 {
        fill: #fff;
      }
    </style>
  </defs>
  <g class="st1">
    <g id="Laag_1">
      <g class="st5">
        <path class="st4" d="M137.07-184.53c2.25,0,4.02.38,5.27,1.28,1.25.94,2.06,2.4,2.06,4.46,0,4.06-3.06,6.02-6.11,6.39-.47.06-1.03.06-1.37.03l-2.28-.59v4.8c0,2.62.28,2.81,3.02,3v.9h-8.64v-.9c2.46-.19,2.71-.44,2.71-3.03v-12.38c0-2.74-.25-2.87-2.53-3.06v-.9h7.86ZM134.63-174.02c.37.19,1.22.37,2.15.37,1.87,0,4.33-1.03,4.33-5.05,0-3.4-2.09-4.8-4.55-4.8-.81,0-1.4.16-1.62.38-.22.19-.31.56-.31,1.37v7.73Z"/>
        <path class="st4" d="M150.07-174.95c.97-1.65,2.28-3.34,3.71-3.34,1.12,0,1.87.84,1.87,1.62,0,.72-.44,1.4-1.09,1.68-.38.16-.66.1-.84-.09-.47-.44-.84-.62-1.37-.62-.75,0-1.68.81-2.34,2.49v5.71c0,2.03.15,2.21,2.56,2.4v.84h-7.42v-.84c1.87-.19,2.12-.37,2.12-2.4v-6.52c0-1.96-.16-2.09-1.87-2.34v-.75c1.56-.25,3.03-.62,4.62-1.25v3.4h.06Z"/>
        <path class="st4" d="M155.93-164.25v-.84c1.93-.19,2.15-.34,2.15-2.49v-6.39c0-1.94-.12-2.09-1.9-2.37v-.75c1.62-.28,3.21-.65,4.65-1.22v10.73c0,2.12.19,2.31,2.18,2.49v.84h-7.08ZM157.59-182.56c0-1,.78-1.75,1.71-1.75s1.65.75,1.65,1.75c0,.9-.75,1.69-1.68,1.69s-1.68-.78-1.68-1.69Z"/>
        <path class="st4" d="M177.14-177.07c-1.62.22-1.9.53-2.71,2.31-1.06,2.37-2.68,6.21-4.46,10.85h-.91c-1.43-3.77-2.84-7.33-4.33-10.95-.69-1.71-.97-1.96-2.59-2.21v-.84h6.61v.84c-1.65.22-1.71.47-1.25,1.75.81,2.18,2.06,5.46,2.87,7.49,1-2.37,2-5.18,2.68-7.24.47-1.43.28-1.78-1.46-1.99v-.84h5.55v.84Z"/>
        <path class="st4" d="M186.47-163.88c-.53,0-1.19-.28-1.53-.62-.41-.41-.62-.84-.78-1.34-1.22.84-2.71,1.96-3.59,1.96-2.28,0-3.84-1.9-3.84-3.84,0-1.53.81-2.46,2.5-3.06,1.87-.65,4.15-1.46,4.87-2.06v-.59c0-2.21-1-3.46-2.5-3.46-.56,0-1.03.22-1.34.59-.37.44-.65,1.12-.9,2.09-.16.56-.5.78-1,.78-.62,0-1.47-.62-1.47-1.37,0-.47.37-.84,1.03-1.31.9-.66,2.99-1.81,4.74-2.19,1,0,1.93.28,2.65.84,1.12.93,1.43,2.25,1.43,3.9v5.68c0,1.4.53,1.84,1.09,1.84.37,0,.78-.12,1.09-.31l.31.84-2.78,1.62ZM184.1-171.74c-.66.34-1.96.94-2.62,1.25-1.15.56-1.81,1.12-1.81,2.28,0,1.62,1.22,2.37,2.15,2.37.75,0,1.72-.47,2.28-1v-4.9Z"/>
        <path class="st4" d="M195.05-164.29c-.53.28-1,.4-1.28.4-2.06,0-3.21-1.22-3.21-3.74v-9.01h-2.09l-.16-.34.87-.94h1.37v-2.24l2.31-2.15.44.09v4.3h3.43c.31.34.25,1.03-.19,1.28h-3.24v7.95c0,2.49,1.06,2.93,1.81,2.93s1.4-.25,1.87-.47l.28.84-2.21,1.09Z"/>
        <path class="st4" d="M208.58-166.97c-1.93,2.5-4.12,3.09-5.18,3.09-3.87,0-6.11-3.12-6.11-6.64,0-2.18.81-4.12,2.09-5.49,1.31-1.4,3-2.28,4.59-2.28h.03c2.65,0,4.74,2.34,4.74,4.77,0,.65-.16.94-.75,1.03-.53.09-4.4.4-8.02.53.06,4.09,2.4,5.83,4.59,5.83,1.25,0,2.43-.5,3.56-1.53l.47.69ZM200.13-173.27c1.65,0,3.31-.03,5.02-.09.53,0,.72-.16.72-.62.03-1.62-.97-3.12-2.62-3.12-1.37,0-2.68,1.34-3.12,3.84Z"/>
        <path class="st0" d="M217.63-174.14c-.63-1.87-1.69-3.12-3.21-3.12-1.16,0-1.96.87-1.96,2.06,0,1.31,1.15,2.06,2.59,2.65,2.4,1,3.99,2.12,3.99,4.34,0,2.9-2.68,4.33-5.24,4.33-1.59,0-3.09-.59-3.62-1.03-.22-.44-.53-2.59-.53-3.8l.84-.12c.59,2.06,2,3.93,3.87,3.93,1.15,0,2.15-.84,2.15-2.12s-.81-2.03-2.46-2.78c-1.81-.84-3.93-1.93-3.93-4.37,0-2.25,1.9-4.12,4.83-4.12,1.34,0,2.18.28,2.84.56.25.69.59,2.62.69,3.37l-.84.22Z"/>
        <path class="st0" d="M231.88-167.09c-1.4,1.84-3.46,3.21-5.3,3.21-3.99,0-6.36-3.18-6.36-6.52,0-2.4,1.09-4.49,3.15-6.08,1.68-1.31,3.58-1.81,4.77-1.81h.03c1.25,0,2.28.41,2.78.81.41.34.5.62.5,1,0,.69-.72,1.4-1.09,1.4-.19,0-.34-.09-.59-.34-1-.94-2.09-1.34-3.15-1.34-1.9,0-3.62,1.62-3.62,4.93,0,4.27,2.96,5.71,4.64,5.71,1.31,0,2.31-.37,3.68-1.65l.56.69Z"/>
        <path class="st0" d="M242.23-163.88c-.53,0-1.18-.28-1.53-.62-.41-.41-.62-.84-.78-1.34-1.22.84-2.71,1.96-3.59,1.96-2.28,0-3.84-1.9-3.84-3.84,0-1.53.81-2.46,2.5-3.06,1.87-.65,4.15-1.46,4.87-2.06v-.59c0-2.21-1-3.46-2.5-3.46-.56,0-1.03.22-1.34.59-.37.44-.66,1.12-.9,2.09-.16.56-.5.78-1,.78-.62,0-1.47-.62-1.47-1.37,0-.47.37-.84,1.03-1.31.91-.66,3-1.81,4.74-2.19,1,0,1.93.28,2.65.84,1.12.93,1.43,2.25,1.43,3.9v5.68c0,1.4.53,1.84,1.09,1.84.37,0,.78-.12,1.09-.31l.31.84-2.78,1.62ZM239.86-171.74c-.66.34-1.96.94-2.62,1.25-1.15.56-1.81,1.12-1.81,2.28,0,1.62,1.21,2.37,2.15,2.37.75,0,1.71-.47,2.28-1v-4.9Z"/>
        <path class="st0" d="M253.68-164.25v-.84c1.75-.19,1.93-.41,1.93-2.59v-5.21c0-2.15-.81-3.43-2.68-3.43-1.19,0-2.31.69-3.21,1.47v7.36c0,2.09.19,2.21,1.9,2.4v.84h-6.89v-.84c2.09-.22,2.25-.37,2.25-2.43v-6.42c0-2-.19-2.09-1.84-2.4v-.75c1.56-.28,3.12-.65,4.59-1.28v2.46c.62-.44,1.28-.93,2.06-1.43.87-.59,1.65-.94,2.56-.94,2.5,0,4.02,1.78,4.02,4.8v5.99c0,2.09.19,2.18,1.93,2.4v.84h-6.61Z"/>
      </g>
      <path class="st3" d="M92.9-189h-1.98c-.03.5-.05,1-.05,1.51,0,10.54,6.99,19.44,16.6,22.32l-2.84,9.49,3.98-9.19c1.78.44,3.65.67,5.57.67v-.21c-11.74-1.07-21.16-11.05-21.32-22.8h6.68l.56-1.81h-7.19"/>
      <path class="st3" d="M127.33-207.62l2.98-9.86-4,9.16c-3.63-2.33-7.95-3.69-12.58-3.69v.21c11.74,1.07,21.16,11.05,21.32,22.8h-5.54c-.03.61-.11,1.21-.23,1.81h7.7c.03-.5.06-1,.06-1.51,0-7.79-3.83-14.69-9.7-18.92"/>
      <g>
        <g class="st1">
          <g>
            <path class="st4" d="M11.98,8.71l-5.82-2.22-1.61-.62c-.26.22-.51.44-.75.67C-1.16,11.34.33,17.54,6.76,21.82l-6.76,3.43,7.54-2.94c1.23.75,2.64,1.43,4.19,2.02l.1-.09C2.82,20.13-.13,12.68,5.26,7.3l5.42,2.07,1.3-.65"/>
            <path class="st4" d="M49.84,4.17l-7.55,2.93c-1.85-2.18-4.71-4.13-8.47-5.57l-.1.1c9.02,4.12,11.97,11.56,6.57,16.94l-4.49-1.71c-.31.27-.66.52-1.04.75l6.24,2.38c.26-.22.52-.44.76-.67,3.66-3.54,3.8-7.86,1.02-11.59l7.05-3.56"/>
          </g>
        </g>
        <g>
          <g>
            <path class="st6" d="M32.09,3.66C29.43.16,23.97-1.64,18.94,1.99c-4.21,3.04-3.41,8.51-3.41,9.35,0,0-.99,2.37-1.32,3.46-.33,1.1-.72,1.79.47,2.42,1.19.63.39,3.24.92,4.8.53,1.56,3.7,2.09,5.49.48,1.79-1.62,6.18-3.58,9.19-5.69,4.11-2.88,4.57-9.54,1.83-13.15"/>
            <path class="st2" d="M32.09,3.66C29.43.16,23.97-1.64,18.94,1.99c-4.21,3.04-3.41,8.51-3.41,9.35,0,0-.99,2.37-1.32,3.46-.33,1.1-.72,1.79.47,2.42,1.19.63.39,3.24.92,4.8.53,1.56,3.7,2.09,5.49.48,1.79-1.62,6.18-3.58,9.19-5.69,4.11-2.88,4.57-9.54,1.83-13.15"/>
          </g>
          <path class="st7" d="M30.91,4.76c-2.23-2.99-6.81-4.52-11.02-1.42-3.53,2.6-2.86,7.26-2.86,7.98,0,0-.83,2.02-1.11,2.95-.28.94-.6,1.53.39,2.06,1,.53.33,2.77.77,4.1.44,1.33,3.1,1.79,4.6.41,1.5-1.38,5.17-3.05,7.7-4.86,3.44-2.46,3.83-8.14,1.53-11.22"/>
          <path class="st0" d="M29.57,11.05c-.29.72-.91,1.59-1.4,2.22l-2.67-4.46c-.08-.14-.21-.25-.36-.31l-4.64-2.06c.59-.87,1.44-1.54,2.46-1.91,1.27-.47,2.66-.42,3.89.13,2.48,1.1,3.7,3.97,2.72,6.4M28.75,15.05s.04-.06.05-.09c-.02.04-.03.07-.05.09M27.51,3.24c-1.63-.72-3.44-.78-5.11-.17-1.67.61-3,1.82-3.73,3.4-.09.19-.09.4-.02.59.08.19.22.35.41.43l5.2,2.3,3.13,5.23c.15.25.43.4.73.38.26-.01.49-.14.63-.36,0,.01-.01.02-.02.03.01-.02.07-.08.11-.14.73-.88,1.75-2.18,2.21-3.33,1.28-3.19-.31-6.94-3.54-8.37"/>
        </g>
        <g>
          <path class="st4" d="M59.78,4.03c1.73,0,3.1.29,4.06.98.96.72,1.58,1.85,1.58,3.44,0,3.12-2.35,4.64-4.71,4.92-.36.05-.79.05-1.06.02l-1.75-.46v3.7c0,2.02.22,2.16,2.33,2.31v.7h-6.66v-.7c1.9-.14,2.09-.34,2.09-2.33V7.08c0-2.11-.19-2.21-1.95-2.36v-.7h6.05ZM57.9,12.13c.29.14.94.29,1.66.29,1.44,0,3.34-.79,3.34-3.89,0-2.62-1.61-3.7-3.51-3.7-.62,0-1.08.12-1.25.29-.17.14-.24.43-.24,1.06v5.96Z"/>
          <path class="st4" d="M69.79,11.41c.75-1.28,1.75-2.57,2.86-2.57.87,0,1.44.65,1.44,1.25,0,.55-.34,1.08-.84,1.3-.29.12-.5.07-.65-.07-.36-.34-.65-.48-1.06-.48-.58,0-1.3.62-1.8,1.92v4.4c0,1.56.12,1.71,1.97,1.85v.65h-5.72v-.65c1.44-.14,1.63-.29,1.63-1.85v-5.02c0-1.51-.12-1.61-1.44-1.8v-.58c1.2-.19,2.33-.48,3.56-.96v2.62h.05Z"/>
          <path class="st4" d="M74.31,19.65v-.65c1.49-.14,1.66-.26,1.66-1.92v-4.93c0-1.49-.1-1.61-1.47-1.83v-.58c1.25-.22,2.47-.5,3.58-.94v8.26c0,1.63.14,1.78,1.68,1.92v.65h-5.45ZM75.58,5.54c0-.77.6-1.35,1.32-1.35s1.27.58,1.27,1.35c0,.7-.58,1.3-1.3,1.3s-1.3-.6-1.3-1.3Z"/>
          <path class="st4" d="M90.65,9.77c-1.25.17-1.47.41-2.09,1.78-.82,1.83-2.07,4.78-3.44,8.36h-.7c-1.11-2.91-2.19-5.65-3.34-8.43-.53-1.32-.75-1.51-2-1.71v-.65h5.09v.65c-1.27.17-1.32.36-.96,1.35.62,1.68,1.59,4.2,2.21,5.77.77-1.83,1.54-3.99,2.07-5.57.36-1.11.22-1.37-1.13-1.54v-.65h4.28v.65Z"/>
          <path class="st4" d="M97.83,19.93c-.41,0-.91-.21-1.18-.48-.31-.31-.48-.65-.6-1.03-.94.65-2.09,1.51-2.76,1.51-1.75,0-2.96-1.46-2.96-2.95,0-1.18.62-1.9,1.92-2.35,1.44-.5,3.2-1.13,3.75-1.59v-.46c0-1.71-.77-2.67-1.92-2.67-.43,0-.79.17-1.03.46-.29.34-.5.87-.7,1.61-.12.43-.38.6-.77.6-.48,0-1.13-.48-1.13-1.06,0-.36.29-.65.79-1.01.7-.5,2.3-1.39,3.65-1.68.77,0,1.49.22,2.04.65.86.72,1.11,1.73,1.11,3v4.37c0,1.08.41,1.42.84,1.42.29,0,.6-.1.84-.24l.24.65-2.14,1.25ZM96.01,13.88c-.5.26-1.51.72-2.02.96-.89.43-1.39.87-1.39,1.75,0,1.25.94,1.83,1.66,1.83.58,0,1.32-.36,1.75-.77v-3.77Z"/>
          <path class="st4" d="M104.44,19.62c-.41.22-.77.31-.98.31-1.59,0-2.48-.94-2.48-2.88v-6.94h-1.61l-.12-.27.67-.72h1.06v-1.73l1.78-1.66.34.07v3.32h2.64c.24.26.19.79-.14.99h-2.5v6.12c0,1.92.82,2.26,1.39,2.26s1.08-.19,1.44-.36l.22.65-1.71.84Z"/>
          <path class="st4" d="M114.87,17.56c-1.49,1.92-3.17,2.38-3.99,2.38-2.98,0-4.71-2.4-4.71-5.12,0-1.68.62-3.17,1.61-4.23,1.01-1.08,2.31-1.75,3.53-1.75h.02c2.04,0,3.65,1.8,3.65,3.68,0,.5-.12.72-.58.79-.41.07-3.39.31-6.17.41.05,3.15,1.85,4.49,3.53,4.49.96,0,1.88-.38,2.74-1.18l.36.53ZM108.35,12.7c1.27,0,2.55-.02,3.87-.07.41,0,.55-.12.55-.48.03-1.25-.74-2.4-2.02-2.4-1.06,0-2.07,1.03-2.4,2.95Z"/>
          <path class="st0" d="M121.83,12.03c-.48-1.44-1.3-2.4-2.47-2.4-.89,0-1.51.67-1.51,1.59,0,1.01.89,1.59,1.99,2.04,1.85.77,3.07,1.63,3.07,3.34,0,2.23-2.07,3.34-4.04,3.34-1.23,0-2.38-.46-2.79-.79-.17-.34-.41-2-.41-2.93l.65-.1c.46,1.58,1.54,3.03,2.98,3.03.89,0,1.66-.65,1.66-1.63s-.62-1.56-1.9-2.14c-1.39-.65-3.03-1.49-3.03-3.36,0-1.73,1.47-3.17,3.72-3.17,1.03,0,1.68.22,2.19.43.19.53.46,2.02.53,2.59l-.65.17Z"/>
          <path class="st0" d="M132.81,17.46c-1.08,1.42-2.66,2.47-4.08,2.47-3.08,0-4.9-2.45-4.9-5.02,0-1.85.84-3.46,2.43-4.68,1.3-1.01,2.76-1.4,3.68-1.4h.02c.96,0,1.75.31,2.14.63.31.26.38.48.38.77,0,.53-.55,1.08-.84,1.08-.14,0-.26-.07-.46-.26-.77-.72-1.61-1.03-2.43-1.03-1.46,0-2.79,1.25-2.79,3.79,0,3.29,2.28,4.4,3.58,4.4,1.01,0,1.78-.29,2.83-1.27l.43.53Z"/>
          <path class="st0" d="M140.79,19.93c-.41,0-.91-.21-1.18-.48-.31-.31-.48-.65-.6-1.03-.94.65-2.09,1.51-2.76,1.51-1.75,0-2.95-1.46-2.95-2.95,0-1.18.62-1.9,1.92-2.35,1.44-.5,3.19-1.13,3.75-1.59v-.46c0-1.71-.77-2.67-1.92-2.67-.43,0-.79.17-1.03.46-.29.34-.5.87-.7,1.61-.12.43-.38.6-.77.6-.48,0-1.13-.48-1.13-1.06,0-.36.29-.65.79-1.01.7-.5,2.31-1.39,3.65-1.68.77,0,1.49.22,2.04.65.86.72,1.11,1.73,1.11,3v4.37c0,1.08.41,1.42.84,1.42.29,0,.6-.1.84-.24l.24.65-2.14,1.25ZM138.96,13.88c-.5.26-1.51.72-2.02.96-.89.43-1.39.87-1.39,1.75,0,1.25.94,1.83,1.66,1.83.58,0,1.32-.36,1.75-.77v-3.77Z"/>
          <path class="st0" d="M149.61,19.65v-.65c1.34-.14,1.49-.31,1.49-1.99v-4.01c0-1.66-.62-2.64-2.07-2.64-.91,0-1.78.53-2.47,1.13v5.67c0,1.61.14,1.71,1.46,1.85v.65h-5.31v-.65c1.61-.17,1.73-.29,1.73-1.87v-4.95c0-1.54-.14-1.61-1.42-1.85v-.58c1.2-.22,2.4-.5,3.53-.99v1.9c.48-.34.98-.72,1.58-1.11.67-.46,1.27-.72,1.97-.72,1.92,0,3.1,1.37,3.1,3.7v4.61c0,1.61.14,1.68,1.49,1.85v.65h-5.09Z"/>
        </g>
      </g>
    </g>
  </g>
</svg>