<?xml version="1.0" encoding="utf-8"?>
<!-- Generator: Adobe Illustrator 19.0.0, SVG Export Plug-In . SVG Version: 6.00 Build 0)  -->
<svg version="1.1" id="Layer_1" xmlns="http://www.w3.org/2000/svg" xmlns:xlink="http://www.w3.org/1999/xlink" x="0px" y="0px"
	 width="29px" height="21px" viewBox="0 0 29 21" style="enable-background:new 0 0 29 21;" xml:space="preserve">
<g id="Layer_16">
	<path d="M23.7,19L5.3,0.5l0,0c-0.4-0.4-1.1-0.4-1.5,0C3.4,1,3.4,1.6,3.8,2.1l1.6,1.6c-2,1.3-3.6,3-5,5C0,9.3,0,10.2,0.4,10.8
		c3.4,5,8.7,7.9,14.1,7.9c1.7,0,3.5-0.3,5.1-0.9l2.6,2.6c0.4,0.4,1.1,0.4,1.5,0C24.1,20,24.1,19.4,23.7,19L23.7,19z M14.5,15.8
		c-3.3,0-6.1-2.7-6.1-6.1C8.4,8.9,8.6,8,9,7.3l1.7,1.7c-0.4,2.1,0.9,4.2,3,4.7c0.5,0.1,1.1,0.1,1.6,0l1.7,1.7
		C16.2,15.6,15.4,15.8,14.5,15.8L14.5,15.8z"/>
	<path id="XMLID_2_" d="M28.6,8.7c-3.4-5-8.7-7.9-14.1-7.9c-1.7,0-3.5,0.3-5.1,0.9L12,4.2c3.1-1.4,6.6,0,8,3c0.7,1.6,0.7,3.4,0,5
		l3.6,3.6c2-1.3,3.6-3,5-5C29,10.2,29,9.3,28.6,8.7z"/>
	<path id="XMLID_1_" d="M14.5,5.8c-0.3,0-0.5,0-0.8,0.1l4.7,4.7c0.4-2.1-0.9-4.2-3-4.7C15,5.9,14.8,5.8,14.5,5.8L14.5,5.8z"/>
</g>
</svg>
