<?xml version="1.0" encoding="utf-8"?>
<!-- Generator: Adobe Illustrator 19.0.0, SVG Export Plug-In . SVG Version: 6.00 Build 0)  -->
<svg version="1.1" id="Layer_1" xmlns="http://www.w3.org/2000/svg" xmlns:xlink="http://www.w3.org/1999/xlink" x="0px" y="0px"
	 viewBox="0 0 83 23" style="enable-background:new 0 0 83 23;" xml:space="preserve">
<style type="text/css">
	.st0{fill:#033B4A;}
	.st1{fill:#45CCC5;}
</style>
<g id="herniapoli_logo" transform="translate(0 -0.001)">
	<g id="Group_51" transform="translate(48.805 16.625)">
		<path id="Path_56" class="st0" d="M-23.4-0.6v-3.4h-2.8v3.4h-2.2v-8.7h2.2V-6h2.8v-3.4h2.2v8.7L-23.4-0.6z"/>
		<path id="Path_57" class="st0" d="M-13.8-3.4h-3.9c0,0.3,0,0.6,0.1,0.8c0.1,0.2,0.2,0.3,0.4,0.3c0.4,0.1,0.8,0.1,1.2,0.1
			c0.6,0,1.2,0,1.9-0.1v1.5c-0.4,0.1-0.7,0.1-1.1,0.2c-0.5,0-0.9,0.1-1.3,0.1c-0.7,0-1.5-0.1-2.2-0.3c-0.4-0.2-0.7-0.5-0.9-1
			c-0.1-0.7-0.2-1.3-0.2-2c0-0.7,0-1.3,0.2-2c0.1-0.4,0.4-0.8,0.8-1c0.6-0.3,1.3-0.4,2-0.3c0.7,0,1.3,0.1,2,0.3
			c0.4,0.2,0.7,0.5,0.7,1c0.1,0.7,0.2,1.4,0.1,2.1L-13.8-3.4L-13.8-3.4z M-17.4-5.6c-0.1,0.1-0.2,0.2-0.3,0.3
			c-0.1,0.3-0.1,0.6-0.1,0.9h1.9c0-0.3,0-0.6-0.1-0.9c0-0.2-0.1-0.3-0.3-0.3c-0.2-0.1-0.4-0.1-0.6-0.1C-16.9-5.7-17.1-5.7-17.4-5.6
			L-17.4-5.6z"/>
		<path id="Path_58" class="st0" d="M-12.5-7.1h1.9l0.1,1.1h0.1c0.1-0.4,0.4-0.7,0.7-0.9c0.4-0.2,0.8-0.3,1.3-0.3v1.9
			c-0.4,0-0.9,0-1.3,0.2c-0.3,0.1-0.5,0.4-0.6,0.7C-10.4-4-10.4-3.5-10.4-3v2.4h-2L-12.5-7.1L-12.5-7.1z"/>
		<path id="Path_59" class="st0" d="M-3.4-4c0-0.3,0-0.7-0.1-1c0-0.1-0.1-0.3-0.2-0.4c-0.2-0.1-0.4-0.1-0.6-0.1
			c-0.2,0-0.4,0-0.6,0.1c-0.1,0.1-0.2,0.2-0.3,0.4C-5.3-4.6-5.3-4.3-5.3-4v3.4h-2v-6.5h1.9l0.1,0.8h0.1c0.3-0.6,0.9-0.9,1.9-0.9
			c0.4,0,0.9,0.1,1.2,0.3c0.3,0.2,0.5,0.5,0.6,0.8c0.1,0.5,0.2,0.9,0.1,1.4v4h-2L-3.4-4L-3.4-4z"/>
		<path id="Path_60" class="st0" d="M0.1-8.4V-10h2.1v1.7L0.1-8.4z M0.1-0.6v-6.5h2.1v6.5H0.1z"/>
		<path id="Path_61" class="st0" d="M3.9-1c-0.3-0.4-0.5-1-0.5-1.5c0-0.4,0-0.8,0.2-1.2C3.8-3.9,4-4.2,4.3-4.3
			c0.4-0.1,0.8-0.2,1.3-0.2c0.4,0,1,0,1.8,0.1v-0.2c0-0.2,0-0.5-0.1-0.7C7.1-5.5,7-5.5,6.8-5.6c-0.4,0-0.7-0.1-1.1-0.1
			c-0.6,0-1.3,0-1.9,0.1V-7c0.8-0.1,1.7-0.2,2.5-0.2c0.7,0,1.3,0.1,2,0.3C8.7-6.8,9-6.5,9.1-6.1c0.1,0.5,0.2,1,0.2,1.6v3.9H7.4
			L7.3-1.4H7.2C7.1-1.1,6.8-0.8,6.4-0.7C6.1-0.6,5.7-0.5,5.3-0.5C4.8-0.5,4.3-0.7,3.9-1z M6.8-2.1c0.1,0,0.2-0.1,0.3-0.3
			c0.1-0.2,0.2-0.5,0.1-0.8v-0.3H6.1c-0.2,0-0.3,0-0.5,0.1c-0.1,0-0.2,0.1-0.2,0.2c0,0.2-0.1,0.3-0.1,0.5c0,0.1,0,0.3,0.1,0.4
			c0,0.1,0.1,0.2,0.2,0.2C5.9-2,6.1-2,6.3-2C6.5-2,6.7-2,6.8-2.1z"/>
		<path id="Path_62" class="st0" d="M10.9-7.1h1.9l0.1,0.8H13c0.2-0.3,0.4-0.6,0.7-0.7c0.3-0.1,0.7-0.2,1.1-0.2
			c0.4,0,0.9,0.1,1.2,0.3c0.3,0.2,0.6,0.6,0.7,1c0.2,0.7,0.2,1.3,0.2,2c0,0.7,0,1.4-0.2,2c-0.1,0.4-0.3,0.8-0.7,1
			c-0.4,0.2-0.8,0.3-1.2,0.3c-0.4,0-0.7,0-1.1-0.2C13.4-0.8,13.2-1,13-1.3h-0.1v3.2h-2L10.9-7.1L10.9-7.1z M14.6-2.4
			c0.1-0.1,0.2-0.2,0.2-0.4c0-0.4,0.1-0.7,0.1-1.1c0-0.4,0-0.7-0.1-1.1c0-0.2-0.1-0.3-0.2-0.4c-0.2-0.1-0.5-0.1-0.7-0.1
			c-0.2,0-0.4,0-0.6,0.1c-0.1,0.1-0.2,0.2-0.3,0.3C13-4.9,13-4.8,13-4.6c0,0.2,0,0.4,0,0.7c0,0.3,0,0.6,0,0.8c0,0.1,0,0.3,0.1,0.4
			c0,0.1,0.1,0.3,0.3,0.3c0.2,0.1,0.4,0.1,0.6,0.1C14.1-2.3,14.4-2.3,14.6-2.4L14.6-2.4z"/>
		<path id="Path_63" class="st0" d="M19-0.8c-0.4-0.2-0.7-0.5-0.8-0.9C18.1-2.5,18-3.2,18-3.9c0-0.7,0-1.4,0.2-2.1
			c0.1-0.4,0.4-0.8,0.8-0.9c1.4-0.4,2.8-0.4,4.2,0C23.6-6.7,23.9-6.4,24-6c0.1,0.7,0.2,1.4,0.2,2.1c0,0.7,0,1.4-0.2,2.1
			c-0.1,0.4-0.4,0.8-0.8,0.9C21.8-0.4,20.4-0.4,19-0.8z M21.8-2.2c0.1-0.1,0.2-0.3,0.2-0.4c0-0.4,0.1-0.8,0-1.2c0-0.4,0-0.8,0-1.2
			c0-0.2-0.1-0.3-0.2-0.4c-0.5-0.1-1-0.1-1.5,0c-0.1,0.1-0.2,0.2-0.2,0.4c0,0.4-0.1,0.8,0,1.2c0,0.4,0,0.8,0,1.2
			c0,0.2,0.1,0.3,0.2,0.4c0.2,0.1,0.5,0.1,0.7,0.1C21.3-2.1,21.6-2.1,21.8-2.2L21.8-2.2z"/>
		<path id="Path_64" class="st0" d="M25.5-0.6V-10h2.1v9.4L25.5-0.6z"/>
		<path id="Path_65" class="st0" d="M29.1-8.4V-10h2.1v1.7L29.1-8.4z M29.1-0.6v-6.5h2.1v6.5H29.1z"/>
	</g>
	<g id="XMLID_14_">
		<g id="Group_52" transform="translate(12.892 0.001)">
			<path id="Path_66" class="st1" d="M-1.5,11.8c-0.2,0.8-1,1.4-1.8,1.2c-0.8-0.2-1.4-1-1.2-1.8c0.2-0.8,1-1.4,1.8-1.2l0,0
				C-1.9,10.1-1.3,11-1.5,11.8z"/>
			<path id="Path_67" class="st1" d="M-5.4,7.8c0.1-0.7,0.8-1.2,1.5-1c0.7,0.1,1.2,0.8,1,1.5C-3,9-3.7,9.5-4.4,9.4
				C-5.1,9.2-5.6,8.5-5.4,7.8L-5.4,7.8z"/>
			<path id="Path_68" class="st1" d="M-5.6,5c0.1-0.5,0.6-0.9,1.2-0.8c0.5,0.1,0.9,0.6,0.8,1.2c-0.1,0.5-0.6,0.9-1.2,0.8
				C-5.3,6-5.7,5.5-5.6,5z"/>
			<path id="Path_69" class="st1" d="M-4.9,2.7C-4.8,2.3-4.4,2.1-4,2.1C-3.6,2.2-3.4,2.6-3.4,3c-0.1,0.4-0.5,0.7-0.9,0.6
				C-4.7,3.5-5,3.1-4.9,2.7z"/>
			<path id="Path_70" class="st1" d="M-3.7,1C-3.6,0.7-3.3,0.5-3,0.5s0.6,0.4,0.5,0.7c-0.1,0.3-0.4,0.6-0.7,0.5
				C-3.5,1.7-3.7,1.4-3.7,1C-3.7,1-3.7,1-3.7,1z"/>
		</g>
		<path id="Path_71" class="st1" d="M12.3,15.2c-0.1,0.7-0.8,1.2-1.5,1s-1.2-0.8-1-1.5c0.1-0.7,0.8-1.2,1.5-1
			C12,13.8,12.5,14.5,12.3,15.2L12.3,15.2z"/>
		<path id="Path_72" class="st1" d="M12.5,18c-0.1,0.5-0.6,0.9-1.2,0.8c-0.5-0.1-0.9-0.6-0.8-1.2c0.1-0.5,0.6-0.9,1.2-0.8
			C12.2,17,12.6,17.5,12.5,18z"/>
		<path id="Path_73" class="st1" d="M11.8,20.3c-0.1,0.4-0.5,0.7-0.9,0.6c-0.4-0.1-0.7-0.5-0.6-0.9c0.1-0.4,0.5-0.7,0.9-0.6
			C11.6,19.5,11.9,19.9,11.8,20.3z"/>
		<path id="Path_74" class="st1" d="M10.6,22c-0.1,0.3-0.4,0.6-0.7,0.5c-0.3-0.1-0.6-0.4-0.5-0.7c0.1-0.3,0.4-0.6,0.7-0.5
			C10.4,21.3,10.6,21.7,10.6,22C10.6,22,10.6,22,10.6,22z"/>
		<path id="Path_75" class="st0" d="M13,11.5c0,0-1.8-4.2-1.8-6.5c0-1.2,0.2-2.4,0.6-3.5c0,0-1.4,0.9-1.6,3.2
			C10.1,7.6,13,11.5,13,11.5z"/>
		<g id="Group_53" transform="translate(21.695 11.885)">
			<path id="Path_76" class="st0" d="M-7.3-4.7c-1-1-2.3-1.8-3.6-2.3c-0.2-0.1-0.3,0.6-0.1,0.7c1.3,0.4,2.4,1.1,3.4,2
				c2.7,2.7,3.1,6.8,0.8,9c-0.4,0.4-0.9,0.8-1.4,1c0,0,0,0.1,0,0.1c0,0,0,0,0,0c0,0,0,0.1,0,0.1c0,0.3-0.1,0.7-0.3,1
				c1-0.2,1.8-0.7,2.5-1.4C-3.6,3.1-4.1-1.5-7.3-4.7z"/>
		</g>
		<path id="Path_77" class="st0" d="M6.8,11.5c0,0,1.8,4.1,1.8,6.5c0,1.2-0.2,2.4-0.6,3.5c0,0,1.4-0.9,1.6-3.2
			C9.7,15.4,6.8,11.5,6.8,11.5z"/>
		<g id="Group_54" transform="translate(0 10.02)">
			<path id="Path_78" class="st0" d="M5.4,5.8c1,1,2.3,1.8,3.6,2.3c0.2,0.1,0.3-0.6,0.1-0.7c-1.3-0.4-2.4-1.1-3.4-2
				C3.1,2.7,2.7-1.3,5-3.6c0.4-0.4,0.9-0.8,1.4-1c0,0,0-0.1,0-0.1c0,0,0,0,0,0c0,0,0-0.1,0-0.1c0-0.3,0.1-0.7,0.3-1
				c-1,0.2-1.8,0.7-2.5,1.4C1.7-2,2.2,2.6,5.4,5.8z"/>
		</g>
		<path id="Path_79" class="st0" d="M8.2,13.6c-1.1-1.9-1.8-4-2-6.2c0,0-0.5,1.5,0.2,3.9s1.5,2.9,2,5.1"/>
		<path id="Path_80" class="st0" d="M11.6,9.4c1.1,1.9,1.8,4,2,6.2c0,0,0.5-1.5-0.2-3.9c-0.7-2.3-1.5-2.9-2-5.1"/>
	</g>
</g>
</svg>
