<?xml version="1.0" encoding="utf-8"?>
<!-- Generator: Adobe Illustrator 19.0.0, SVG Export Plug-In . SVG Version: 6.00 Build 0)  -->
<svg version="1.1" id="Layer_1" xmlns="http://www.w3.org/2000/svg" xmlns:xlink="http://www.w3.org/1999/xlink" x="0px" y="0px"
	 viewBox="0 0 88 17" style="enable-background:new 0 0 88 17;" xml:space="preserve">
<style type="text/css">
	.st0{fill:#00699F;}
	.st1{fill:#F17121;}
	.st2{fill:#222222;}
</style>
<g id="XMLID_3_">
	<g id="XMLID_67_">
		<g id="XMLID_73_">
			<path id="XMLID_74_" class="st0" d="M4,0.6c0,0-0.8,1.8,0.8,4.1s4.5,4.6,2.5,7.7s-4.5,4.5-4.5,4.5s4-3.5,3.7-6.2S4.6,6.7,4,5.2
				S3.2,2.1,4,0.6z"/>
		</g>
		<g id="XMLID_70_">
			<path id="XMLID_72_" class="st1" d="M3.5,14.1c0,0,2.6-1.9,1.9-4.5S3.3,5.8,2.8,4.4s0-3,0.4-3.5C2.6,1.6,1.4,3.2,2.7,5.4
				s2.4,4.1,2.2,5.8C4.6,12.9,3.9,13.7,3.5,14.1z"/>
		</g>
		<g id="XMLID_68_">
			<circle id="XMLID_69_" class="st0" cx="6.9" cy="3.1" r="1.6"/>
		</g>
	</g>
	<g id="XMLID_34_">
		<path id="XMLID_64_" class="st2" d="M11.3,13.8V4.4H15c0.7,0,1.3,0.1,1.9,0.3c0.5,0.2,0.9,0.6,1.2,1c0.3,0.5,0.4,1.1,0.4,1.9
			c0,0.7-0.2,1.3-0.5,1.8c-0.3,0.5-0.8,0.9-1.3,1.1c-0.6,0.2-1.2,0.4-1.9,0.4h-1.6v2.8H11.3z M13.2,9.3h1.6c0.6,0,1-0.1,1.3-0.4
			c0.3-0.3,0.5-0.7,0.5-1.2c0-0.5-0.1-0.9-0.4-1.1c-0.3-0.2-0.7-0.4-1.3-0.4h-1.7V9.3z"/>
		<path id="XMLID_62_" class="st2" d="M19.7,13.8v-7h1.7l0.1,0.8c0.2-0.3,0.4-0.5,0.6-0.6c0.2-0.1,0.5-0.2,0.7-0.3
			c0.2,0,0.5-0.1,0.7-0.1c0.1,0,0.2,0,0.3,0c0.1,0,0.2,0,0.2,0v1.8h-0.4c-0.4,0-0.8,0.1-1.1,0.2c-0.3,0.1-0.5,0.4-0.7,0.7
			c-0.2,0.3-0.2,0.7-0.2,1.2v3.3H19.7z"/>
		<path id="XMLID_59_" class="st2" d="M25.9,6.1c-0.3,0-0.6-0.1-0.8-0.3c-0.2-0.2-0.3-0.5-0.3-0.8c0-0.3,0.1-0.6,0.3-0.8
			c0.2-0.2,0.5-0.3,0.8-0.3c0.3,0,0.6,0.1,0.8,0.3C26.9,4.3,27,4.6,27,5c0,0.3-0.1,0.6-0.3,0.8C26.5,6,26.2,6.1,25.9,6.1z M25,13.8
			v-7h1.9v7H25z"/>
		<path id="XMLID_52_" class="st2" d="M30,13.8l-2.5-7h2l1.7,5.5l1.7-5.5h2l-2.5,7H30z"/>
		<path id="XMLID_49_" class="st2" d="M37.9,13.9c-0.3,0-0.6,0-0.9-0.1c-0.3-0.1-0.6-0.2-0.8-0.4c-0.2-0.2-0.4-0.4-0.5-0.7
			s-0.2-0.6-0.2-0.9c0-0.5,0.1-0.9,0.3-1.1c0.2-0.3,0.5-0.5,0.8-0.7c0.3-0.2,0.7-0.3,1.1-0.3c0.4-0.1,0.9-0.1,1.3-0.1h1
			c0-0.3,0-0.5-0.1-0.7c-0.1-0.2-0.2-0.4-0.4-0.5c-0.2-0.1-0.4-0.2-0.7-0.2c-0.2,0-0.4,0-0.5,0.1c-0.2,0-0.3,0.1-0.4,0.2
			c-0.1,0.1-0.2,0.2-0.2,0.3h-1.9c0.1-0.4,0.2-0.7,0.4-1c0.2-0.3,0.4-0.5,0.7-0.7c0.3-0.2,0.6-0.3,1-0.4c0.3-0.1,0.7-0.1,1.1-0.1
			c1,0,1.8,0.3,2.3,0.9c0.5,0.6,0.7,1.4,0.7,2.5v3.8h-1.7l0-0.9c-0.2,0.3-0.5,0.5-0.7,0.7c-0.3,0.1-0.5,0.2-0.8,0.3
			C38.3,13.9,38.1,13.9,37.9,13.9z M38.3,12.4c0.3,0,0.6-0.1,0.8-0.2c0.3-0.1,0.5-0.3,0.6-0.5c0.2-0.2,0.2-0.5,0.2-0.7v-0.2h-1.3
			c-0.2,0-0.4,0-0.5,0c-0.2,0-0.3,0.1-0.5,0.1c-0.1,0-0.2,0.1-0.3,0.2c-0.1,0.1-0.1,0.2-0.1,0.4c0,0.2,0,0.3,0.1,0.4
			s0.2,0.2,0.4,0.3C38,12.4,38.2,12.4,38.3,12.4z"/>
		<path id="XMLID_47_" class="st2" d="M46.1,13.9c-0.8,0-1.4-0.2-1.7-0.7c-0.4-0.4-0.6-1-0.6-1.8V8.5h-1V6.8h1V4.9h1.9v1.9h2.1v1.7
			h-2.1V11c0,0.2,0,0.4,0.1,0.6c0.1,0.2,0.2,0.3,0.3,0.4c0.1,0.1,0.3,0.1,0.6,0.1c0.2,0,0.4,0,0.5-0.1c0.1-0.1,0.3-0.1,0.4-0.2
			l0.6,1.4c-0.2,0.2-0.4,0.3-0.6,0.4c-0.2,0.1-0.5,0.2-0.7,0.2C46.5,13.9,46.3,13.9,46.1,13.9z"/>
		<path id="XMLID_44_" class="st2" d="M52,13.9c-0.7,0-1.4-0.1-1.9-0.4c-0.5-0.3-0.9-0.7-1.2-1.2c-0.3-0.5-0.4-1.2-0.4-1.9
			c0-0.7,0.1-1.4,0.4-1.9c0.3-0.5,0.7-1,1.2-1.3c0.5-0.3,1.1-0.5,1.8-0.5c0.5,0,1,0.1,1.4,0.3c0.4,0.2,0.7,0.4,1,0.7
			c0.3,0.3,0.5,0.7,0.6,1.1c0.1,0.4,0.2,0.9,0.2,1.4c0,0.1,0,0.2,0,0.4c0,0.1,0,0.2-0.1,0.3h-4.8c0,0.3,0.1,0.5,0.2,0.7
			c0.1,0.2,0.3,0.4,0.5,0.5c0.2,0.1,0.5,0.2,0.8,0.2c0.2,0,0.4,0,0.6-0.1c0.2,0,0.3-0.1,0.5-0.2c0.1-0.1,0.2-0.2,0.3-0.4h1.8
			c-0.1,0.5-0.3,1-0.6,1.3c-0.3,0.3-0.7,0.6-1.1,0.7C53,13.8,52.5,13.9,52,13.9z M50.5,9.6h3c0-0.2-0.1-0.5-0.2-0.7
			c-0.1-0.2-0.3-0.4-0.5-0.5c-0.2-0.1-0.5-0.2-0.8-0.2s-0.6,0.1-0.8,0.2c-0.2,0.1-0.4,0.3-0.5,0.5C50.5,9.1,50.5,9.3,50.5,9.6z"/>
		<path id="XMLID_42_" class="st2" d="M59.2,13.9c-0.3,0-0.7,0-1-0.1c-0.3-0.1-0.7-0.2-1-0.4c-0.3-0.2-0.5-0.4-0.7-0.7
			c-0.2-0.3-0.3-0.7-0.4-1.1H58c0.1,0.2,0.1,0.3,0.3,0.4c0.1,0.1,0.3,0.2,0.5,0.3c0.2,0.1,0.4,0.1,0.6,0.1c0.1,0,0.2,0,0.4,0
			c0.1,0,0.2-0.1,0.3-0.1c0.1-0.1,0.2-0.1,0.3-0.2c0.1-0.1,0.1-0.2,0.1-0.3c0-0.1,0-0.3-0.1-0.3c-0.1-0.1-0.2-0.1-0.4-0.2
			c-0.2,0-0.3-0.1-0.5-0.1c-0.4-0.1-0.8-0.2-1.2-0.3c-0.4-0.1-0.8-0.2-1.1-0.4c-0.1-0.1-0.2-0.2-0.3-0.3c-0.1-0.1-0.2-0.2-0.2-0.4
			c-0.1-0.1-0.1-0.3-0.1-0.4c0-0.1-0.1-0.3-0.1-0.5c0-0.4,0.1-0.7,0.2-1c0.2-0.3,0.4-0.5,0.7-0.7c0.3-0.2,0.6-0.3,0.9-0.4
			c0.3-0.1,0.7-0.1,1-0.1c0.5,0,0.9,0.1,1.3,0.2c0.4,0.2,0.7,0.4,1,0.7c0.3,0.3,0.4,0.7,0.5,1.3h-1.8c0-0.2-0.2-0.4-0.4-0.5
			c-0.2-0.1-0.5-0.2-0.8-0.2c-0.1,0-0.2,0-0.3,0c-0.1,0-0.2,0-0.3,0.1c-0.1,0-0.2,0.1-0.2,0.2c-0.1,0.1-0.1,0.2-0.1,0.3
			c0,0.1,0,0.2,0.1,0.3c0.1,0.1,0.1,0.1,0.3,0.2c0.1,0.1,0.2,0.1,0.4,0.1c0.3,0.1,0.6,0.1,0.9,0.2c0.3,0.1,0.6,0.1,0.8,0.2
			c0.3,0.1,0.6,0.2,0.8,0.3c0.2,0.1,0.4,0.3,0.6,0.6c0.2,0.2,0.2,0.6,0.2,0.9c0,0.4-0.1,0.8-0.3,1.1c-0.2,0.3-0.4,0.5-0.7,0.7
			c-0.3,0.2-0.6,0.3-1,0.4C59.9,13.8,59.5,13.9,59.2,13.9z"/>
		<path id="XMLID_40_" class="st2" d="M66.5,13.9c-0.7,0-1.3-0.1-1.8-0.4c-0.5-0.3-0.9-0.7-1.2-1.2c-0.3-0.5-0.4-1.2-0.4-1.9
			c0-0.7,0.1-1.4,0.4-1.9c0.3-0.5,0.7-1,1.2-1.3c0.5-0.3,1.1-0.5,1.9-0.5c0.6,0,1.1,0.1,1.5,0.3c0.4,0.2,0.8,0.5,1.1,0.9
			c0.3,0.4,0.4,0.8,0.5,1.4h-1.8c-0.1-0.3-0.2-0.5-0.5-0.7c-0.2-0.1-0.5-0.2-0.8-0.2c-0.4,0-0.7,0.1-0.9,0.3
			c-0.2,0.2-0.4,0.4-0.5,0.7C65,9.7,65,10,65,10.3c0,0.3,0.1,0.6,0.2,0.9c0.1,0.3,0.3,0.5,0.5,0.7c0.2,0.2,0.5,0.3,0.9,0.3
			c0.3,0,0.6-0.1,0.8-0.2c0.2-0.1,0.4-0.4,0.5-0.7h1.9c0,0.6-0.2,1.1-0.5,1.4c-0.3,0.4-0.7,0.7-1.1,0.9
			C67.6,13.8,67.1,13.9,66.5,13.9z"/>
		<path id="XMLID_37_" class="st2" d="M73.1,13.9c-0.3,0-0.6,0-0.9-0.1c-0.3-0.1-0.6-0.2-0.8-0.4c-0.2-0.2-0.4-0.4-0.5-0.7
			s-0.2-0.6-0.2-0.9c0-0.5,0.1-0.9,0.3-1.1c0.2-0.3,0.5-0.5,0.8-0.7c0.3-0.2,0.7-0.3,1.1-0.3c0.4-0.1,0.9-0.1,1.3-0.1h1
			c0-0.3,0-0.5-0.1-0.7c-0.1-0.2-0.2-0.4-0.4-0.5c-0.2-0.1-0.4-0.2-0.7-0.2c-0.2,0-0.4,0-0.5,0.1c-0.2,0-0.3,0.1-0.4,0.2
			c-0.1,0.1-0.2,0.2-0.2,0.3h-1.9c0.1-0.4,0.2-0.7,0.4-1c0.2-0.3,0.4-0.5,0.7-0.7c0.3-0.2,0.6-0.3,1-0.4c0.3-0.1,0.7-0.1,1.1-0.1
			c1,0,1.8,0.3,2.3,0.9C76.7,8.1,77,9,77,10v3.8h-1.7l0-0.9c-0.2,0.3-0.5,0.5-0.7,0.7c-0.3,0.1-0.5,0.2-0.8,0.3
			C73.4,13.9,73.2,13.9,73.1,13.9z M73.5,12.4c0.3,0,0.6-0.1,0.8-0.2c0.3-0.1,0.5-0.3,0.6-0.5c0.2-0.2,0.2-0.5,0.2-0.7v-0.2h-1.3
			c-0.2,0-0.4,0-0.5,0c-0.2,0-0.3,0.1-0.5,0.1c-0.1,0-0.2,0.1-0.3,0.2c-0.1,0.1-0.1,0.2-0.1,0.4c0,0.2,0,0.3,0.1,0.4
			c0.1,0.1,0.2,0.2,0.4,0.3C73.1,12.4,73.3,12.4,73.5,12.4z"/>
		<path id="XMLID_35_" class="st2" d="M78.4,13.8v-7h1.7l0.1,0.8c0.2-0.2,0.4-0.4,0.7-0.6c0.3-0.1,0.5-0.2,0.8-0.3
			c0.3-0.1,0.5-0.1,0.7-0.1c0.7,0,1.2,0.1,1.6,0.4c0.4,0.3,0.6,0.7,0.8,1.2c0.2,0.5,0.2,1,0.2,1.6v3.9h-1.9v-3.6
			c0-0.2,0-0.4-0.1-0.6c0-0.2-0.1-0.4-0.2-0.6c-0.1-0.2-0.2-0.3-0.4-0.4c-0.2-0.1-0.4-0.2-0.7-0.2c-0.4,0-0.7,0.1-0.9,0.3
			c-0.2,0.2-0.4,0.4-0.5,0.7c-0.1,0.3-0.2,0.6-0.2,1v3.5H78.4z"/>
	</g>
</g>
</svg>
