<?xml version="1.0" encoding="utf-8"?>
<!-- Generator: Adobe Illustrator 19.0.0, SVG Export Plug-In . SVG Version: 6.00 Build 0)  -->
<svg version="1.1" id="Layer_1" xmlns="http://www.w3.org/2000/svg" xmlns:xlink="http://www.w3.org/1999/xlink" x="0px" y="0px"
	 viewBox="0 0 248 37" style="enable-background:new 0 0 248 37;" xml:space="preserve">
<style type="text/css">
	.st0{fill:url(#XMLID_2_);}
</style>
<linearGradient id="XMLID_2_" gradientUnits="userSpaceOnUse" x1="29.4932" y1="1.5897" x2="-0.2514" y2="28.3718">
	<stop  offset="0.1989" style="stop-color:#45CCC5"/>
	<stop  offset="1" style="stop-color:#00699F"/>
</linearGradient>
<path id="XMLID_6_" class="st0" d="M14.4,12.9c0,0,0-3,0-3.4S14.8,9,15.1,9c0.3,0,3.4,0,3.4,0s0-3,0-3.5s0.3-0.6,0.6-0.6
	c0.2,0,3.6,0,4,0c0.4,0,0.5,0.3,0.5,0.5c0,0.2,0,3.6,0,3.6s3.2,0,3.5,0s0.6,0.2,0.6,0.5s0,3.8,0,4.1s-0.2,0.5-0.5,0.5
	c-0.3,0-3.6,0-3.6,0s0,3,0,3.5c0,0.5-0.1,0.6-0.7,0.6c-0.6,0-3.8,0-3.8,0l0-2.4c-6.6,2.5-9.2,5.9-11.5,9.1s-2.3,6.2-2.3,7.9
	c0,1.7,0.6,2.9,1.6,2.9s5,0,7.1,0s1.9-2,2-3.4c0.1-1.5,0.3-2.6,0.5-3.5c1.5-4.5,4.2-6.2,8-6.4c3.8-0.2,10.6-2.6,10.7-10.2
	c0.1-7.6-6.6-10.5-9.9-10.7S9.1,1.4,7.7,1.4S5.2,1.9,5.3,3.7s0,8.6,0,8.6s-0.1,2.8,3.1,2.8s9.5-0.9,9.5-0.9s-2.6,0-2.9,0
	c-0.3,0-0.6-0.1-0.6-0.6C14.4,13.1,14.4,12.9,14.4,12.9"/>
<g id="XMLID_4_">
	<path id="XMLID_7_" d="M39,35.9L39,17h4.6l0,1.7c0.6-0.7,1.4-1.2,2.3-1.6c0.9-0.4,1.9-0.6,2.9-0.6c0.7,0,1.4,0.1,2.1,0.3l-1.8,4.6
		c-0.5-0.2-1-0.3-1.4-0.3c-0.7,0-1.4,0.2-2,0.5s-1.1,0.8-1.5,1.5c-0.4,0.6-0.5,1.3-0.5,2v10.7H39z"/>
	<path id="XMLID_22_" d="M55.3,14.6c-0.7,0-1.3-0.2-1.7-0.7c-0.5-0.4-0.7-1-0.7-1.7c0-0.7,0.2-1.2,0.7-1.7c0.5-0.5,1-0.7,1.7-0.7
		s1.2,0.2,1.7,0.7c0.5,0.5,0.7,1,0.7,1.7c0,0.7-0.2,1.2-0.7,1.7C56.5,14.4,55.9,14.6,55.3,14.6z M52.9,17h4.6v18.9h-4.6V17z"/>
	<path id="XMLID_39_" d="M73.2,35.9h-5.9L60.4,17h4.9l4.9,13.6L75.1,17H80L73.2,35.9z"/>
	<path id="XMLID_49_" d="M96.3,17h4.6v18.9h-4.6l-0.2-2.3c-0.5,0.8-1.2,1.5-2,2c-0.8,0.5-1.9,0.8-3,0.8c-1.4,0-2.7-0.3-3.9-0.8
		c-1.2-0.5-2.3-1.3-3.2-2.2c-0.9-0.9-1.6-2-2.2-3.2c-0.5-1.2-0.8-2.5-0.8-3.9c0-1.3,0.2-2.6,0.7-3.8c0.5-1.2,1.2-2.2,2.1-3.1
		c0.9-0.9,1.9-1.6,3.1-2.1c1.2-0.5,2.4-0.8,3.8-0.8c1.2,0,2.4,0.3,3.4,0.8c1,0.6,1.8,1.3,2.5,2.1L96.3,17z M90.9,31.9
		c1,0,1.8-0.2,2.6-0.7c0.8-0.5,1.3-1.2,1.8-2c0.4-0.8,0.6-1.8,0.6-2.8c0-1-0.2-1.9-0.6-2.8c-0.4-0.8-1-1.5-1.8-2
		c-0.8-0.5-1.6-0.7-2.6-0.7c-1,0-1.9,0.2-2.7,0.7c-0.8,0.5-1.4,1.2-1.9,2c-0.5,0.8-0.7,1.8-0.7,2.8s0.2,1.9,0.7,2.8
		c0.5,0.8,1.1,1.5,1.9,2C89.1,31.7,90,31.9,90.9,31.9z"/>
	<path id="XMLID_70_" d="M114.8,21.6h-3.7v14.3h-4.6V21.6h-2.8V17h2.8v-5.9h4.6V17h3.7V21.6z"/>
	<path id="XMLID_165_" d="M126.1,36.4c-1.7,0-3.3-0.4-4.7-1.3c-1.4-0.9-2.6-2.1-3.4-3.6c-0.8-1.5-1.3-3.2-1.3-5
		c0-1.4,0.2-2.7,0.7-3.9c0.5-1.2,1.2-2.3,2-3.2c0.9-0.9,1.9-1.6,3-2.1c1.1-0.5,2.4-0.8,3.7-0.8c1.5,0,2.8,0.3,4,0.9
		c1.2,0.6,2.3,1.5,3.1,2.6c0.9,1.1,1.5,2.3,1.9,3.7c0.4,1.4,0.5,2.8,0.3,4.3h-13.8c0.2,0.7,0.5,1.3,0.9,1.9c0.4,0.6,0.9,1,1.5,1.3
		c0.6,0.3,1.3,0.5,2.1,0.5c0.8,0,1.5-0.2,2.2-0.6c0.7-0.4,1.2-0.9,1.7-1.6l4.7,1.1c-0.8,1.7-1.9,3-3.4,4.1
		C129.7,35.8,128,36.4,126.1,36.4z M121.5,24.6h9.3c-0.1-0.8-0.4-1.4-0.9-2c-0.4-0.6-1-1.1-1.7-1.5c-0.7-0.4-1.4-0.5-2.1-0.5
		c-0.8,0-1.5,0.2-2.1,0.5c-0.6,0.4-1.2,0.8-1.6,1.5C121.9,23.1,121.6,23.8,121.5,24.6z"/>
	<path id="XMLID_187_" d="M148,35.9V9.5h9.4c1.4,0,2.7,0.4,3.9,1.1c1.2,0.7,2.1,1.7,2.8,2.9c0.7,1.2,1,2.5,1,4c0,1.5-0.3,2.8-1,4
		c-0.7,1.2-1.6,2.2-2.8,2.9c-1.2,0.7-2.4,1.1-3.8,1.1h-4.8v10.5H148z M152.6,20.8h4.3c0.7,0,1.3-0.2,1.8-0.5c0.5-0.3,1-0.8,1.3-1.3
		c0.3-0.6,0.5-1.2,0.5-1.8c0-0.7-0.2-1.3-0.5-1.9s-0.8-1-1.3-1.3c-0.5-0.3-1.1-0.5-1.8-0.5h-4.3V20.8z"/>
	<path id="XMLID_191_" d="M175.5,36.4c-1.7,0-3.3-0.4-4.7-1.3c-1.4-0.9-2.6-2.1-3.4-3.6c-0.8-1.5-1.3-3.2-1.3-5
		c0-1.4,0.2-2.7,0.7-3.9c0.5-1.2,1.2-2.3,2-3.2c0.9-0.9,1.9-1.6,3-2.1c1.1-0.5,2.4-0.8,3.7-0.8c1.7,0,3.3,0.4,4.7,1.3
		c1.4,0.9,2.6,2.1,3.4,3.6c0.8,1.5,1.3,3.2,1.3,5c0,1.4-0.2,2.7-0.7,3.9c-0.5,1.2-1.2,2.2-2,3.2c-0.9,0.9-1.9,1.6-3,2.1
		C178,36.1,176.8,36.4,175.5,36.4z M175.5,31.8c0.9,0,1.7-0.2,2.5-0.7c0.7-0.5,1.3-1.1,1.7-1.9c0.4-0.8,0.6-1.7,0.6-2.6
		c0-1-0.2-1.9-0.7-2.7c-0.4-0.8-1-1.5-1.8-1.9s-1.5-0.7-2.4-0.7c-0.9,0-1.7,0.2-2.5,0.7c-0.7,0.5-1.3,1.1-1.7,2s-0.6,1.7-0.6,2.7
		c0,1,0.2,1.9,0.7,2.7c0.4,0.8,1,1.4,1.8,1.9C173.8,31.5,174.6,31.8,175.5,31.8z"/>
	<path id="XMLID_284_" d="M187.9,35.9l0-18.9h4.6l0,1.7c0.6-0.7,1.4-1.2,2.3-1.6c0.9-0.4,1.9-0.6,2.9-0.6c0.7,0,1.4,0.1,2.1,0.3
		l-1.8,4.6c-0.5-0.2-1-0.3-1.4-0.3c-0.7,0-1.4,0.2-2,0.5c-0.6,0.4-1.1,0.8-1.5,1.5c-0.4,0.6-0.5,1.3-0.5,2v10.7H187.9z"/>
	<path id="XMLID_293_" d="M212.6,21.6h-3.7v14.3h-4.6V21.6h-2.8V17h2.8v-5.9h4.6V17h3.7V21.6z"/>
	<path id="XMLID_295_" d="M229.8,17h4.6v18.9h-4.6l-0.2-2.3c-0.5,0.8-1.2,1.5-2,2s-1.9,0.8-3,0.8c-1.4,0-2.7-0.3-3.9-0.8
		c-1.2-0.5-2.3-1.3-3.2-2.2c-0.9-0.9-1.6-2-2.2-3.2c-0.5-1.2-0.8-2.5-0.8-3.9c0-1.3,0.2-2.6,0.7-3.8c0.5-1.2,1.2-2.2,2.1-3.1
		c0.9-0.9,1.9-1.6,3.1-2.1c1.2-0.5,2.4-0.8,3.8-0.8c1.2,0,2.4,0.3,3.3,0.8c1,0.6,1.8,1.3,2.5,2.1L229.8,17z M224.4,31.9
		c1,0,1.8-0.2,2.6-0.7c0.8-0.5,1.3-1.2,1.8-2c0.4-0.8,0.6-1.8,0.6-2.8c0-1-0.2-1.9-0.6-2.8c-0.4-0.8-1-1.5-1.8-2
		c-0.8-0.5-1.6-0.7-2.6-0.7s-1.9,0.2-2.7,0.7c-0.8,0.5-1.4,1.2-1.9,2c-0.5,0.8-0.7,1.8-0.7,2.8s0.2,1.9,0.7,2.8
		c0.5,0.8,1.1,1.5,1.9,2C222.6,31.7,223.4,31.9,224.4,31.9z"/>
	<path id="XMLID_298_" d="M238.2,35.9V7.6h4.6v28.3H238.2z"/>
</g>
</svg>
