<?xml version="1.0" encoding="UTF-8"?>
<svg id="Laag_1" data-name="Laag 1" xmlns="http://www.w3.org/2000/svg" viewBox="0 0 2087.36 705.14">
  <defs>
    <style>
      .cls-1 {
        fill: #84a9d3;
      }

      .cls-1, .cls-2, .cls-3 {
        stroke-width: 0px;
      }

      .cls-2 {
        fill: #ff7928;
      }

      .cls-3 {
        fill: #0064a7;
      }
    </style>
  </defs>
  <path class="cls-3" d="M158.33,322.52h-23.77c-.37,6.01-.64,12.04-.64,18.12,0,126.32,83.82,233.01,198.9,267.53l-34.02,113.77,47.64-110.07c21.38,5.26,43.74,8.04,66.75,8.04v-2.47c-140.68-12.84-253.59-132.4-255.46-273.19h80.05l6.67-21.73h-86.12"/>
  <path class="cls-3" d="M570.82,99.35l35.76-118.13-47.96,109.79c-43.51-27.94-95.29-44.19-150.82-44.19v2.49c140.67,12.87,253.57,132.39,255.45,273.21h-66.37c-.39,7.27-1.31,14.5-2.7,21.69h92.24c.36-5.99.67-12,.67-18.1,0-93.41-45.89-176.06-116.28-226.75"/>
  <path class="cls-1" d="M519.97,223.39c-33.92-44.63-103.65-67.55-167.82-21.23-53.68,38.8-43.55,108.52-43.55,119.32,0,0-12.62,30.21-16.88,44.17-4.27,14-9.15,22.81,5.97,30.83,15.17,8.04,5.02,41.34,11.74,61.23,6.73,19.85,47.22,26.73,70.02,6.14,22.79-20.65,78.79-45.71,117.23-72.66,52.38-36.77,58.34-121.69,23.3-167.81ZM485.37,380.71c-32.21,23.02-79.11,44.39-98.23,61.99-19.06,17.58-53.01,11.75-58.67-5.22-5.59-16.95,2.9-45.44-9.81-52.26-12.68-6.84-8.58-14.37-5-26.31,3.59-11.92,14.16-37.7,14.16-37.7,0-9.24-8.5-68.72,36.49-101.86,53.71-39.53,112.15-19.96,140.59,18.14,29.36,39.35,24.35,111.83-19.53,143.21Z"/>
  <path class="cls-2" d="M487.83,317.77c-3.68,9.17-11.59,20.25-17.88,28.27l-34.12-56.88c-1.07-1.77-2.65-3.16-4.56-4.02l-59.26-26.25c7.51-11.16,18.38-19.65,31.41-24.43,16.22-5.93,33.89-5.36,49.66,1.64,31.6,14,47.16,50.64,34.75,81.66M477.31,368.78c.24-.35.46-.71.64-1.12-.23.47-.44.86-.64,1.12M461.5,218.12c-20.74-9.18-43.87-9.93-65.21-2.16-21.3,7.8-38.22,23.23-47.64,43.42-1.12,2.39-1.21,5.12-.26,7.57.96,2.44,2.84,4.45,5.28,5.5l66.31,29.38,39.99,66.7c1.91,3.19,5.49,5.05,9.27,4.88,3.27-.15,6.25-1.85,7.99-4.54-.1.15-.19.29-.22.35.18-.24.86-1.06,1.45-1.76,9.29-11.19,22.34-27.75,28.22-42.51,16.33-40.66-3.97-88.56-45.18-106.85"/>
  <path class="cls-3" d="M883.34,188.15c19.51,0,34.94,3.26,45.77,11.1,10.83,8.14,17.87,20.87,17.87,38.74,0,35.21-26.52,52.27-53.07,55.52-4.06.53-8.94.53-11.91.26l-19.78-5.13v41.69c0,22.76,2.44,24.39,26.28,26.02v7.85h-75.03v-7.85c21.4-1.63,23.57-3.8,23.57-26.28v-107.52c0-23.84-2.17-24.93-21.94-26.56v-7.85h68.25ZM862.21,279.42c3.25,1.63,10.56,3.25,18.69,3.25,16.25,0,37.63-8.94,37.63-43.86,0-29.53-18.13-41.7-39.53-41.7-7.02,0-12.19,1.35-14.07,3.25-1.9,1.62-2.72,4.87-2.72,11.9v67.17Z"/>
  <path class="cls-3" d="M996.28,271.32c8.4-14.38,19.76-29.01,32.22-29.01,9.75,0,16.26,7.32,16.26,14.1,0,6.23-3.79,12.19-9.48,14.62-3.25,1.35-5.69.82-7.31-.8-4.06-3.8-7.31-5.42-11.93-5.42-6.49,0-14.62,7.03-20.3,21.66v49.56c0,17.59,1.35,19.22,22.21,20.85v7.32h-64.46v-7.32c16.25-1.63,18.42-3.26,18.42-20.85v-56.61c0-17.04-1.35-18.14-16.26-20.31v-6.48c13.55-2.18,26.28-5.43,40.1-10.84v29.54h.54Z"/>
  <path class="cls-3" d="M1047.2,364.21v-7.32c16.79-1.63,18.69-2.98,18.69-21.66v-55.53c0-16.79-1.1-18.14-16.53-20.59v-6.48c14.08-2.43,27.9-5.69,40.35-10.57v93.17c0,18.4,1.63,20.03,18.97,21.66v7.32h-61.49ZM1061.56,205.22c0-8.66,6.77-15.17,14.89-15.17s14.36,6.51,14.36,15.17c0,7.85-6.51,14.62-14.63,14.62s-14.62-6.77-14.62-14.62Z"/>
  <path class="cls-3" d="M1231.38,252.89c-14.08,1.89-16.53,4.6-23.56,20.04-9.22,20.59-23.28,53.89-38.73,94.25h-7.85c-12.46-32.76-24.64-63.65-37.64-95.07-5.97-14.88-8.4-17.05-22.5-19.22v-7.31h57.44v7.31c-14.36,1.89-14.9,4.05-10.84,15.17,7.05,18.96,17.89,47.39,24.92,65,8.68-20.59,17.34-44.96,23.31-62.83,4.05-12.48,2.43-15.45-12.75-17.34v-7.31h48.22v7.31Z"/>
  <path class="cls-3" d="M1312.37,367.45c-4.6,0-10.28-2.42-13.28-5.41-3.5-3.51-5.41-7.31-6.76-11.65-10.57,7.31-23.56,17.05-31.15,17.05-19.77,0-33.32-16.51-33.32-33.3,0-13.29,7.05-21.4,21.66-26.54,16.25-5.68,36.03-12.73,42.26-17.88v-5.15c0-19.22-8.67-30.06-21.67-30.06-4.87,0-8.93,1.9-11.65,5.15-3.25,3.78-5.68,9.76-7.84,18.14-1.36,4.87-4.34,6.76-8.67,6.76-5.43,0-12.73-5.41-12.73-11.9,0-4.06,3.25-7.32,8.94-11.38,7.85-5.68,25.97-15.7,41.15-18.97,8.66,0,16.79,2.45,23.02,7.32,9.74,8.11,12.46,19.5,12.46,33.87v49.29c0,12.19,4.59,15.99,9.48,15.99,3.25,0,6.76-1.09,9.48-2.72l2.71,7.32-24.11,14.07ZM1291.78,299.2c-5.68,2.98-17.05,8.13-22.75,10.84-10.01,4.88-15.7,9.75-15.7,19.76,0,14.08,10.55,20.59,18.67,20.59,6.51,0,14.91-4.07,19.77-8.67v-42.53Z"/>
  <path class="cls-3" d="M1386.86,363.93c-4.6,2.44-8.66,3.51-11.1,3.51-17.89,0-27.91-10.56-27.91-32.49v-78.27h-18.13l-1.37-2.99,7.58-8.11h11.91v-19.51l20.05-18.68,3.79.8v37.39h29.79c2.72,2.98,2.17,8.93-1.63,11.11h-28.16v69.05c0,21.68,9.22,25.47,15.72,25.47s12.18-2.17,16.24-4.06l2.46,7.31-19.25,9.48Z"/>
  <path class="cls-3" d="M1504.41,340.64c-16.79,21.67-35.76,26.81-44.97,26.81-33.57,0-53.08-27.07-53.08-57.68,0-18.96,7.05-35.75,18.16-47.67,11.37-12.19,26-19.78,39.82-19.78h.25c23.03,0,41.16,20.33,41.16,41.45,0,5.69-1.34,8.13-6.48,8.94-4.61.82-38.2,3.51-69.61,4.6.54,35.48,20.86,50.64,39.81,50.64,10.83,0,21.14-4.34,30.88-13.28l4.06,5.97ZM1431.01,285.93c14.36,0,28.71-.26,43.61-.82,4.6,0,6.22-1.35,6.22-5.42.29-14.07-8.39-27.07-22.75-27.07-11.92,0-23.3,11.64-27.08,33.3Z"/>
  <path class="cls-2" d="M1582.95,278.34c-5.42-16.25-14.62-27.08-27.9-27.08-10.02,0-17.05,7.59-17.05,17.87,0,11.38,10.03,17.89,22.48,23.03,20.85,8.68,34.66,18.42,34.66,37.64,0,25.19-23.3,37.64-45.49,37.64-13.82,0-26.82-5.14-31.42-8.92-1.91-3.8-4.6-22.49-4.6-33.04l7.31-1.1c5.14,17.87,17.34,34.14,33.59,34.14,10.01,0,18.68-7.32,18.68-18.42s-7.05-17.62-21.39-24.12c-15.72-7.31-34.14-16.79-34.14-37.92,0-19.49,16.54-35.76,41.99-35.76,11.65,0,18.96,2.45,24.65,4.89,2.17,5.97,5.13,22.76,5.94,29.25l-7.31,1.89Z"/>
  <path class="cls-2" d="M1706.72,339.56c-12.18,15.99-30.04,27.89-46.02,27.89-34.68,0-55.26-27.62-55.26-56.59,0-20.87,9.48-39.01,27.35-52.81,14.63-11.37,31.15-15.73,41.44-15.73h.28c10.82,0,19.76,3.53,24.1,7.07,3.52,2.98,4.34,5.41,4.34,8.67,0,5.97-6.24,12.19-9.48,12.19-1.63,0-2.98-.81-5.14-2.98-8.68-8.14-18.17-11.65-27.37-11.65-16.51,0-31.42,14.08-31.42,42.78,0,37.11,25.74,49.57,40.36,49.57,11.37,0,20.05-3.24,31.96-14.35l4.87,5.96Z"/>
  <path class="cls-2" d="M1796.65,367.45c-4.59,0-10.28-2.42-13.28-5.41-3.5-3.51-5.4-7.31-6.76-11.65-10.56,7.31-23.56,17.05-31.15,17.05-19.78,0-33.31-16.51-33.31-33.3,0-13.29,7.05-21.4,21.68-26.54,16.24-5.68,36.01-12.73,42.24-17.88v-5.15c0-19.22-8.67-30.06-21.67-30.06-4.87,0-8.94,1.9-11.65,5.15-3.24,3.78-5.69,9.76-7.86,18.14-1.34,4.87-4.32,6.76-8.65,6.76-5.43,0-12.74-5.41-12.74-11.9,0-4.06,3.26-7.32,8.94-11.38,7.86-5.68,26.01-15.7,41.17-18.97,8.67,0,16.8,2.45,23.02,7.32,9.74,8.11,12.46,19.5,12.46,33.87v49.29c0,12.19,4.6,15.99,9.47,15.99,3.25,0,6.78-1.09,9.48-2.72l2.72,7.32-24.11,14.07ZM1776.07,299.2c-5.69,2.98-17.07,8.13-22.76,10.84-10.01,4.88-15.7,9.75-15.7,19.76,0,14.08,10.56,20.59,18.67,20.59,6.52,0,14.91-4.07,19.78-8.67v-42.53Z"/>
  <path class="cls-2" d="M1896.06,364.21v-7.32c15.16-1.63,16.79-3.51,16.79-22.47v-45.24c0-18.68-7.03-29.79-23.3-29.79-10.29,0-20.04,5.96-27.89,12.73v63.92c0,18.16,1.62,19.22,16.51,20.85v7.32h-59.86v-7.32c18.16-1.89,19.49-3.26,19.49-21.12v-55.8c0-17.33-1.63-18.14-15.96-20.86v-6.48c13.53-2.43,27.08-5.69,39.82-11.12v21.4c5.42-3.8,11.09-8.13,17.87-12.46,7.59-5.14,14.35-8.14,22.22-8.14,21.66,0,34.92,15.43,34.92,41.73v52c0,18.16,1.62,18.96,16.8,20.85v7.32h-57.42Z"/>
  <g>
    <path class="cls-1" d="M875.79,449.52l-4.73,9.4c-5.73-4.26-11.35-6.38-16.86-6.38-8.74,0-15.63,3.08-20.68,9.23-5.05,6.16-7.57,14.3-7.57,24.44s2.48,17.42,7.42,23.31c4.96,5.89,11.71,8.82,20.26,8.82,6.08,0,10.99-1.82,14.75-5.47v-19.54h-11.56v-9.68h22.96v36.34c-3.04,2.59-7.28,4.67-12.7,6.23-5.43,1.58-10.71,2.37-15.84,2.37-11.51,0-20.61-3.9-27.26-11.7-6.67-7.81-10-18.18-10-31.14s3.66-23.38,10.97-31.42c7.31-8.02,17.17-12.05,29.6-12.05,8.69,0,15.78,2.41,21.25,7.23Z"/>
    <path class="cls-1" d="M947.41,497.73h-43.99c0,7.13,1.96,12.62,5.87,16.46,3.46,3.35,7.9,5.01,13.34,5.01,6.19,0,11.36-1.8,15.49-5.41l4.56,7.81c-1.67,1.67-4.23,3.11-7.69,4.32-4.32,1.6-9.15,2.4-14.47,2.4-7.67,0-14.18-2.61-19.54-7.81-5.97-5.73-8.95-13.44-8.95-23.13s3.06-18.14,9.17-24.21c5.48-5.43,11.95-8.16,19.43-8.16,8.7,0,15.52,2.46,20.46,7.36,4.78,4.71,7.18,10.96,7.18,18.74,0,2.4-.29,4.6-.86,6.61ZM921.15,474.14c-4.82,0-8.87,1.56-12.14,4.67-3.11,2.97-4.88,6.65-5.3,11.05h33.79c0-4.36-1.37-8.01-4.1-10.94-3-3.19-7.09-4.78-12.25-4.78Z"/>
    <path class="cls-1" d="M971.22,517.5h33.83v9.68h-50.82v-2.85l34.7-48.49h-34.13v-9.68h49.91v3.08l-33.5,48.26Z"/>
    <path class="cls-1" d="M1011.04,496.52c0-9.41,2.53-17.03,7.61-22.82,5.07-5.79,11.74-8.69,20.02-8.69,8.73,0,15.52,2.79,20.34,8.35,4.82,5.57,7.23,13.29,7.23,23.16s-2.47,17.59-7.4,23.27c-4.93,5.68-11.66,8.52-20.17,8.52s-15.47-2.87-20.34-8.61c-4.86-5.72-7.29-13.46-7.29-23.18ZM1022.43,496.52c0,15.3,5.41,22.96,16.24,22.96,5.06,0,9.01-2.06,11.88-6.16,2.87-4.1,4.3-9.7,4.3-16.8,0-15.12-5.39-22.67-16.18-22.67-4.93,0-8.88,2.01-11.81,6.04-2.95,4.03-4.42,9.58-4.42,16.64Z"/>
    <path class="cls-1" d="M1115.18,527.18v-35.5c0-6.49-.98-11.04-2.93-13.64-1.96-2.6-5.23-3.9-9.83-3.9-2.47,0-5.06.73-7.75,2.22-2.7,1.48-4.77,3.3-6.21,5.47v45.35h-10.83v-61.02h7.4l3.42,7.86c3.57-6,9.4-9,17.49-9,13.37,0,20.05,8.14,20.05,24.38v37.78h-10.83Z"/>
    <path class="cls-1" d="M1180.08,527.12v-4.5c-3.77,3.76-9.24,5.63-16.42,5.63-7.64,0-13.83-2.73-18.57-8.2-4.75-5.47-7.12-12.76-7.12-21.87s2.75-16.97,8.21-23.45c5.47-6.47,11.98-9.71,19.54-9.71,6.3,0,11.09,1.49,14.36,4.45v-28.31h10.82v85.97h-10.82ZM1180.08,480.29c-2.73-4.1-6.48-6.15-11.23-6.15-5.81,0-10.51,2.16-14.1,6.49-3.59,4.34-5.38,9.84-5.38,16.53,0,14.69,6.68,22.04,20.05,22.04,1.71,0,3.76-.53,6.16-1.62,2.39-1.08,3.89-2.22,4.5-3.45v-33.84Z"/>
    <path class="cls-1" d="M1263.55,528.32h-2.86l-26.14-62.33h11.85l16.12,42.72,16.47-42.72h11.34l-26.77,62.33Z"/>
    <path class="cls-1" d="M1294.7,496.52c0-9.41,2.53-17.03,7.61-22.82,5.07-5.79,11.74-8.69,20.02-8.69,8.74,0,15.52,2.79,20.34,8.35,4.82,5.57,7.24,13.29,7.24,23.16s-2.47,17.59-7.4,23.27c-4.93,5.68-11.66,8.52-20.17,8.52s-15.47-2.87-20.34-8.61c-4.86-5.72-7.29-13.46-7.29-23.18ZM1306.09,496.52c0,15.3,5.41,22.96,16.24,22.96,5.06,0,9.01-2.06,11.88-6.16,2.87-4.1,4.3-9.7,4.3-16.8,0-15.12-5.39-22.67-16.18-22.67-4.93,0-8.88,2.01-11.81,6.04-2.95,4.03-4.42,9.58-4.42,16.64Z"/>
    <path class="cls-1" d="M1357.32,496.52c0-9.41,2.53-17.03,7.61-22.82,5.07-5.79,11.74-8.69,20.02-8.69,8.73,0,15.51,2.79,20.34,8.35,4.82,5.57,7.23,13.29,7.23,23.16s-2.47,17.59-7.4,23.27c-4.93,5.68-11.66,8.52-20.17,8.52s-15.47-2.87-20.34-8.61c-4.86-5.72-7.29-13.46-7.29-23.18ZM1368.71,496.52c0,15.3,5.41,22.96,16.24,22.96,5.06,0,9.01-2.06,11.88-6.16,2.87-4.1,4.3-9.7,4.3-16.8,0-15.12-5.39-22.67-16.18-22.67-4.93,0-8.88,2.01-11.81,6.04-2.95,4.03-4.42,9.58-4.42,16.64Z"/>
    <path class="cls-1" d="M1457.07,476.59c-2.36-1.63-4.72-2.44-7.11-2.44-3.85,0-7.19,1.77-10.06,5.29-2.87,3.53-4.3,7.79-4.3,12.77v34.98h-10.82v-61.02h10.82v9.75c3.95-7.26,9.81-10.89,17.61-10.89,1.93,0,4.72.34,8.37,1.03l-4.5,10.54Z"/>
    <path class="cls-1" d="M1479.53,466.16v38.91c0,9.42,4.08,14.13,12.25,14.13,3.57,0,6.84-1.02,9.79-3.07,2.97-2.06,4.92-4.43,5.87-7.12v-42.85h10.83v61.02h-10.83v-8.44c-1.21,2.4-3.65,4.59-7.31,6.58-3.67,2-7.25,3-10.74,3-6.69,0-11.8-1.92-15.36-5.76-3.56-3.83-5.32-9.29-5.32-16.35v-40.06h10.83Z"/>
    <path class="cls-1" d="M1538.27,527.18v-51.9h-8.38v-9.11h19.21v61.02h-10.83ZM1544.19,443.09c1.86,0,3.45.66,4.76,1.97,1.31,1.31,1.97,2.88,1.97,4.7s-.66,3.45-1.97,4.76c-1.31,1.31-2.9,1.97-4.76,1.97s-3.39-.66-4.7-1.97c-1.31-1.31-1.97-2.9-1.97-4.76s.64-3.45,1.93-4.73c1.29-1.29,2.87-1.93,4.73-1.93Z"/>
    <path class="cls-1" d="M1570.17,474.71h-7.07v-8.55h7.07v-12.76l10.82-4.16v16.92h16.75v8.55h-16.75v30.31c0,5.12.86,8.77,2.59,10.94,1.72,2.17,4.51,3.25,8.35,3.25,2.77,0,5.63-.7,8.6-2.1l1.59,9.51c-4.48,1.13-9.4,1.71-14.75,1.71-4.82,0-8.9-1.8-12.23-5.39-3.32-3.59-4.98-8.11-4.98-13.58v-34.64Z"/>
    <path class="cls-1" d="M1687.12,527.18l-19.14-30.54-9.46,9.75v20.79h-10.82v-86.02h10.82v53.38l23.36-28.38h12.65l-19.55,23.18,23.87,37.83h-11.74Z"/>
    <path class="cls-1" d="M1711.81,527.18v-51.9h-8.38v-9.11h19.21v61.02h-10.83ZM1717.73,443.09c1.86,0,3.45.66,4.76,1.97,1.31,1.31,1.97,2.88,1.97,4.7s-.66,3.45-1.97,4.76c-1.31,1.31-2.9,1.97-4.76,1.97s-3.39-.66-4.7-1.97c-1.31-1.31-1.97-2.9-1.97-4.76s.65-3.45,1.93-4.73c1.29-1.29,2.87-1.93,4.73-1.93Z"/>
    <path class="cls-1" d="M1733.16,551.11v-9.68c7.45,0,12.55-1.13,15.3-3.39,2.75-2.27,4.12-5.98,4.12-11.15v-51.62h-12.14v-9.11h22.96v60.51c0,8.39-2.47,14.56-7.4,18.52-4.93,3.95-12.56,5.92-22.85,5.92ZM1756.52,443.09c1.86,0,3.45.66,4.76,1.97,1.31,1.31,1.97,2.88,1.97,4.7s-.66,3.45-1.97,4.76c-1.31,1.31-2.9,1.97-4.76,1.97s-3.43-.66-4.73-1.97c-1.29-1.31-1.93-2.9-1.93-4.76s.64-3.45,1.93-4.73c1.3-1.29,2.87-1.93,4.73-1.93Z"/>
    <path class="cls-1" d="M1822.04,527.18l-19.14-30.54-9.46,9.75v20.79h-10.82v-86.02h10.82v53.38l23.36-28.38h12.65l-19.55,23.18,23.87,37.83h-11.74Z"/>
    <path class="cls-1" d="M1892.86,497.73h-43.99c0,7.13,1.96,12.62,5.87,16.46,3.46,3.35,7.9,5.01,13.34,5.01,6.19,0,11.36-1.8,15.49-5.41l4.56,7.81c-1.67,1.67-4.23,3.11-7.69,4.32-4.32,1.6-9.15,2.4-14.47,2.4-7.67,0-14.18-2.61-19.54-7.81-5.97-5.73-8.95-13.44-8.95-23.13s3.06-18.14,9.17-24.21c5.48-5.43,11.95-8.16,19.43-8.16,8.7,0,15.51,2.46,20.46,7.36,4.78,4.71,7.18,10.96,7.18,18.74,0,2.4-.29,4.6-.86,6.61ZM1866.6,474.14c-4.82,0-8.87,1.56-12.14,4.67-3.11,2.97-4.88,6.65-5.3,11.05h33.79c0-4.36-1.37-8.01-4.1-10.94-3-3.19-7.09-4.78-12.25-4.78Z"/>
    <path class="cls-1" d="M1942.65,527.18v-35.5c0-6.49-.98-11.04-2.93-13.64-1.96-2.6-5.24-3.9-9.83-3.9-2.47,0-5.06.73-7.75,2.22-2.7,1.48-4.77,3.3-6.21,5.47v45.35h-10.82v-61.02h7.4l3.42,7.86c3.57-6,9.4-9,17.49-9,13.37,0,20.05,8.14,20.05,24.38v37.78h-10.83Z"/>
  </g>
</svg>