<?xml version="1.0" encoding="UTF-8"?>
<svg id="Laag_1" data-name="Laag 1" xmlns="http://www.w3.org/2000/svg" xmlns:xlink="http://www.w3.org/1999/xlink" viewBox="0 0 1096.26 862.69">
  <defs>
    <style>
      .cls-1 {
        clip-path: url(#clippath);
      }

      .cls-2 {
        fill: none;
      }

      .cls-2, .cls-3, .cls-4, .cls-5 {
        stroke-width: 0px;
      }

      .cls-3 {
        fill: #84a9d3;
      }

      .cls-4 {
        fill: #0064a7;
      }

      .cls-6 {
        isolation: isolate;
      }

      .cls-5 {
        fill: #ff7928;
      }
    </style>
    <clipPath id="clippath">
      <polygon class="cls-2" points="-19.72 638.07 319.32 57.9 1071.63 219.4 732.59 799.57 -19.72 638.07"/>
    </clipPath>
  </defs>
  <g class="cls-6">
    <g class="cls-1">
      <g>
        <path class="cls-4" d="M313.38,357.48l-117.11-25.14-32.32-6.94c-72.83,100.36-9.11,218.52,138.89,281.62l-98.36,79.17,115.18-72.31c26.67,10.37,55.82,19.07,87.1,25.78l1.13-1.93c-185.44-51.13-284.25-177.73-222.38-288.56l108.87,23.37,19.01-15.07"/>
        <path class="cls-4" d="M962.1,195.88l-115.46,71.99c-46.39-34.58-109.36-62.43-184.89-78.65l-1.14,1.95c185.41,51.16,284.26,177.72,222.35,288.57l-90.26-19.38c-3.83,5.57-8.41,10.97-13.6,16.21l125.44,26.93c54.6-74.86,32.43-161.82-45.14-225.53l102.7-82.1"/>
      </g>
    </g>
  </g>
  <path class="cls-3" d="M683.04,244.75c-48.68-64.06-148.77-96.98-240.88-30.47-77.04,55.67-62.49,155.77-62.49,171.26,0,0-18.12,43.35-24.24,63.39-6.12,20.11-13.13,32.74,8.57,44.24,21.76,11.54,7.22,59.35,16.84,87.9,9.66,28.49,67.79,38.37,100.51,8.82,32.7-29.65,113.11-65.6,168.26-104.3,75.18-52.77,83.74-174.64,33.44-240.84ZM633.37,470.54c-46.25,33.04-113.56,63.72-140.97,88.99-27.35,25.25-76.1,16.85-84.22-7.5-8.02-24.33,4.15-65.2-14.08-75.02-18.2-9.81-12.31-20.61-7.18-37.75,5.14-17.12,20.32-54.12,20.32-54.12,0-13.24-12.2-98.62,52.35-146.19,77.1-56.76,160.98-28.64,201.8,26.05,42.15,56.46,34.95,160.51-28.04,205.53Z"/>
  <path class="cls-5" d="M636.91,380.19c-5.26,13.17-16.64,29.07-25.66,40.59l-48.97-81.63c-1.52-2.53-3.81-4.53-6.55-5.75l-85.06-37.69c10.8-16.01,26.39-28.21,45.08-35.06,23.28-8.51,48.63-7.69,71.3,2.36,45.34,20.09,67.68,72.68,49.86,117.18M621.81,453.43c.34-.5.66-1.03.91-1.61-.34.66-.64,1.22-.91,1.61M599.11,237.18c-29.77-13.18-62.95-14.26-93.58-3.08-30.6,11.19-54.88,33.34-68.37,62.32-1.62,3.42-1.75,7.34-.39,10.87,1.38,3.5,4.08,6.39,7.58,7.9l95.18,42.18,57.4,95.73c2.74,4.58,7.9,7.24,13.31,6.98,4.7-.21,8.97-2.64,11.47-6.5-.15.22-.27.42-.32.5.25-.33,1.24-1.5,2.07-2.51,13.36-16.07,32.07-39.85,40.5-61.02,23.45-58.36-5.7-127.13-64.85-153.37"/>
</svg>