<?xml version="1.0" encoding="UTF-8"?>
<svg id="Laag_1" data-name="Laag 1" xmlns="http://www.w3.org/2000/svg" xmlns:xlink="http://www.w3.org/1999/xlink" viewBox="0 0 1410.82 1080">
  <defs>
    <style>
      .cls-1 {
        clip-path: url(#clippath);
      }

      .cls-2 {
        fill: none;
      }

      .cls-2, .cls-3, .cls-4, .cls-5, .cls-6 {
        stroke-width: 0px;
      }

      .cls-3 {
        fill: #84a9d3;
      }

      .cls-4 {
        fill: #0064a7;
      }

      .cls-7 {
        isolation: isolate;
      }

      .cls-5 {
        fill: #ff7928;
      }

      .cls-6 {
        fill: #0064a7;
      }
    </style>
    <clipPath id="clippath">
      <polygon class="cls-2" points="164.52 637.61 503.56 57.44 1255.88 218.94 916.83 799.11 164.52 637.61"/>
    </clipPath>
  </defs>
  <g class="cls-7">
    <g class="cls-1">
      <g>
        <path class="cls-4" d="M497.63,357.03l-117.11-25.14-32.32-6.94c-72.83,100.36-9.11,218.52,138.88,281.62l-98.35,79.18,115.18-72.31c26.67,10.37,55.82,19.06,87.1,25.78l1.13-1.93c-185.45-51.12-284.25-177.73-222.38-288.56l108.87,23.37,19.01-15.07"/>
        <path class="cls-4" d="M1146.33,195.43l-115.46,72c-46.39-34.59-109.36-62.44-184.89-78.65l-1.14,1.95c185.41,51.16,284.26,177.72,222.36,288.57l-90.26-19.38c-3.83,5.57-8.41,10.97-13.6,16.21l125.44,26.93c54.6-74.86,32.43-161.82-45.14-225.53l102.69-82.1"/>
      </g>
    </g>
  </g>
  <path class="cls-5" d="M821.15,379.74c-5.26,13.17-16.64,29.07-25.66,40.59l-48.97-81.63c-1.52-2.53-3.81-4.53-6.55-5.75l-85.06-37.69c10.8-16.01,26.39-28.21,45.08-35.06,23.28-8.51,48.63-7.69,71.3,2.36,45.34,20.09,67.68,72.68,49.86,117.18M806.05,452.97c.34-.5.66-1.03.91-1.61-.34.66-.64,1.22-.91,1.61M783.35,236.73c-29.77-13.18-62.95-14.26-93.58-3.08-30.6,11.19-54.88,33.34-68.37,62.32-1.62,3.42-1.75,7.34-.39,10.87,1.38,3.5,4.08,6.39,7.58,7.9l95.18,42.18,57.4,95.73c2.74,4.58,7.9,7.24,13.31,6.98,4.7-.21,8.97-2.64,11.47-6.5-.15.22-.27.42-.32.5.25-.33,1.24-1.5,2.07-2.51,13.36-16.07,32.07-39.85,40.5-61.02,23.45-58.36-5.7-127.13-64.85-153.37"/>
  <path class="cls-6" d="M204.4,726.53c19.56,0,35.04,3.26,45.89,11.13,10.87,8.15,17.93,20.93,17.93,38.84,0,35.31-26.61,52.42-53.22,55.67-4.08.54-8.96.54-11.94.27l-19.83-5.15v41.81c0,22.81,2.44,24.45,26.35,26.09v7.87h-75.24v-7.87c21.46-1.63,23.63-3.81,23.63-26.35v-107.82c0-23.91-2.17-25-22-26.63v-7.87h68.44ZM183.22,818.06c3.25,1.63,10.59,3.25,18.74,3.25,16.29,0,37.74-8.96,37.74-43.98,0-29.61-18.18-41.82-39.64-41.82-7.05,0-12.22,1.36-14.11,3.25-1.91,1.63-2.72,4.89-2.72,11.94v67.35Z"/>
  <path class="cls-6" d="M317.67,809.93c8.42-14.41,19.81-29.09,32.31-29.09,9.78,0,16.3,7.34,16.3,14.14,0,6.25-3.8,12.22-9.5,14.66-3.26,1.36-5.71.82-7.34-.81-4.07-3.8-7.33-5.42-11.96-5.42-6.51,0-14.66,7.06-20.36,21.72v49.7c0,17.64,1.36,19.27,22.28,20.91v7.34h-64.65v-7.34c16.29-1.63,18.47-3.26,18.47-20.91v-56.77c0-17.1-1.36-18.2-16.3-20.37v-6.51c13.58-2.18,26.35-5.43,40.2-10.87v29.61h.55Z"/>
  <path class="cls-6" d="M368.73,903.07v-7.34c16.83-1.63,18.74-2.99,18.74-21.72v-55.68c0-16.84-1.09-18.2-16.57-20.64v-6.51c14.12-2.43,27.97-5.7,40.46-10.6v93.43c0,18.45,1.63,20.09,19.02,21.72v7.34h-61.65ZM383.12,743.65c0-8.69,6.78-15.22,14.93-15.22s14.4,6.53,14.4,15.22c0,7.87-6.53,14.66-14.67,14.66s-14.66-6.79-14.66-14.66Z"/>
  <path class="cls-6" d="M553.41,791.44c-14.11,1.91-16.57,4.62-23.62,20.1-9.25,20.64-23.35,54.04-38.83,94.51h-7.88c-12.49-32.86-24.71-63.82-37.75-95.33-5.98-14.93-8.43-17.1-22.56-19.28v-7.33h57.59v7.33c-14.4,1.91-14.93,4.07-10.87,15.22,7.07,19.01,17.93,47.51,24.98,65.18,8.7-20.64,17.39-45.09,23.37-63.01,4.07-12.51,2.44-15.48-12.78-17.39v-7.33h48.35v7.33Z"/>
  <path class="cls-6" d="M634.62,906.32c-4.61,0-10.31-2.43-13.31-5.42-3.52-3.53-5.42-7.33-6.78-11.68-10.59,7.32-23.62,17.1-31.23,17.1-19.83,0-33.41-16.56-33.41-33.4,0-13.32,7.07-21.45,21.72-26.61,16.29-5.7,36.12-12.77,42.37-17.93v-5.17c0-19.28-8.69-30.13-21.73-30.13-4.88,0-8.95,1.91-11.68,5.16-3.25,3.79-5.7,9.78-7.87,18.2-1.35,4.88-4.34,6.77-8.68,6.77-5.44,0-12.76-5.42-12.76-11.94,0-4.08,3.25-7.34,8.96-11.41,7.87-5.7,26.05-15.75,41.27-19.02,8.69,0,16.84,2.46,23.09,7.34,9.77,8.14,12.49,19.56,12.49,33.95v49.43c0,12.23,4.61,16.03,9.51,16.03,3.25,0,6.78-1.09,9.5-2.73l2.72,7.34-24.17,14.11ZM613.98,837.88c-5.7,2.99-17.11,8.15-22.81,10.88-10.04,4.89-15.75,9.77-15.75,19.81,0,14.12,10.59,20.65,18.73,20.65,6.53,0,14.94-4.08,19.83-8.69v-42.65Z"/>
  <path class="cls-6" d="M709.31,902.8c-4.61,2.44-8.69,3.52-11.12,3.52-17.94,0-27.99-10.59-27.99-32.58v-78.49h-18.18l-1.37-3,7.6-8.14h11.94v-19.56l20.11-18.74,3.8.81v37.48h29.87c2.73,3,2.18,8.96-1.63,11.14h-28.24v69.25c0,21.73,9.24,25.53,15.76,25.53s12.21-2.17,16.28-4.08l2.45,7.33-19.29,9.51Z"/>
  <path class="cls-6" d="M827.19,879.44c-16.84,21.72-35.86,26.88-45.1,26.88-33.66,0-53.22-27.15-53.22-57.84,0-19,7.06-35.84,18.2-47.8,11.41-12.23,26.08-19.84,39.93-19.84h.25c23.1,0,41.29,20.39,41.29,41.57,0,5.71-1.35,8.14-6.51,8.96-4.62.81-38.3,3.52-69.81,4.61.55,35.58,20.93,50.79,39.93,50.79,10.86,0,21.19-4.35,30.96-13.32l4.08,5.99ZM753.59,824.58c14.39,0,28.78-.26,43.72-.81,4.61,0,6.24-1.36,6.24-5.43.29-14.11-8.41-27.15-22.8-27.15-11.95,0-23.36,11.67-27.15,33.4Z"/>
  <path class="cls-5" d="M905.95,816.97c-5.43-16.29-14.66-27.16-27.97-27.16-10.05,0-17.1,7.61-17.1,17.93,0,11.41,10.06,17.93,22.54,23.09,20.92,8.7,34.76,18.47,34.76,37.75,0,25.26-23.36,37.75-45.62,37.75-13.86,0-26.89-5.16-31.51-8.94-1.91-3.8-4.61-22.55-4.61-33.13l7.33-1.09c5.16,17.92,17.39,34.23,33.68,34.23,10.04,0,18.74-7.34,18.74-18.47s-7.07-17.66-21.45-24.18c-15.76-7.33-34.23-16.84-34.23-38.02,0-19.55,16.59-35.86,42.11-35.86,11.68,0,19.01,2.46,24.72,4.91,2.17,5.98,5.14,22.81,5.96,29.33l-7.33,1.9Z"/>
  <path class="cls-5" d="M1030.06,878.35c-12.22,16.03-30.13,27.96-46.15,27.96-34.78,0-55.41-27.7-55.41-56.75,0-20.93,9.51-39.11,27.43-52.96,14.67-11.41,31.23-15.77,41.56-15.77h.27c10.85,0,19.81,3.55,24.16,7.08,3.54,2.99,4.35,5.42,4.35,8.69,0,5.98-6.26,12.22-9.5,12.22-1.63,0-2.99-.81-5.16-2.99-8.7-8.15-18.21-11.68-27.44-11.68-16.56,0-31.5,14.12-31.5,42.91,0,37.21,25.8,49.7,40.46,49.7,11.41,0,20.11-3.25,32.06-14.39l4.88,5.97Z"/>
  <path class="cls-5" d="M1120.23,906.32c-4.61,0-10.32-2.43-13.32-5.42-3.51-3.53-5.42-7.33-6.77-11.68-10.6,7.32-23.62,17.1-31.24,17.1-19.83,0-33.41-16.56-33.41-33.4,0-13.32,7.07-21.45,21.74-26.61,16.29-5.7,36.11-12.77,42.36-17.93v-5.17c0-19.28-8.69-30.13-21.73-30.13-4.88,0-8.96,1.91-11.67,5.16-3.25,3.79-5.71,9.78-7.89,18.2-1.35,4.88-4.33,6.77-8.68,6.77-5.43,0-12.77-5.42-12.77-11.94,0-4.08,3.26-7.34,8.96-11.41,7.88-5.7,26.07-15.75,41.28-19.02,8.69,0,16.84,2.46,23.09,7.34,9.77,8.14,12.49,19.56,12.49,33.95v49.43c0,12.23,4.61,16.03,9.5,16.03,3.25,0,6.79-1.09,9.5-2.73l2.73,7.34-24.17,14.11ZM1099.59,837.88c-5.7,2.99-17.11,8.15-22.81,10.88-10.04,4.89-15.75,9.77-15.75,19.81,0,14.12,10.59,20.65,18.73,20.65,6.53,0,14.94-4.08,19.83-8.69v-42.65Z"/>
  <path class="cls-5" d="M1219.92,903.07v-7.34c15.2-1.63,16.83-3.53,16.83-22.54v-45.36c0-18.73-7.05-29.87-23.35-29.87-10.33,0-20.1,5.97-27.97,12.76v64.1c0,18.2,1.63,19.27,16.57,20.91v7.34h-60.03v-7.34c18.21-1.9,19.55-3.26,19.55-21.18v-55.95c0-17.38-1.63-18.19-16.01-20.92v-6.51c13.57-2.43,27.16-5.7,39.93-11.14v21.45c5.43-3.8,11.12-8.14,17.93-12.49,7.6-5.16,14.38-8.16,22.27-8.16,21.72,0,35.02,15.48,35.02,41.84v52.15c0,18.2,1.62,19.01,16.84,20.91v7.34h-57.57Z"/>
  <path class="cls-3" d="M867.29,244.29c-48.68-64.06-148.77-96.98-240.88-30.47-77.04,55.67-62.49,155.77-62.49,171.26,0,0-18.12,43.35-24.24,63.39-6.12,20.11-13.13,32.74,8.57,44.24,21.76,11.54,7.22,59.35,16.84,87.9,9.66,28.49,67.79,38.37,100.51,8.82,32.7-29.65,113.11-65.6,168.26-104.3,75.18-52.77,83.74-174.64,33.44-240.84ZM817.61,470.09c-46.25,33.04-113.56,63.72-140.97,88.99-27.35,25.25-76.1,16.85-84.22-7.5-8.02-24.33,4.15-65.2-14.08-75.02-18.2-9.81-12.31-20.61-7.18-37.75,5.14-17.12,20.32-54.12,20.32-54.12,0-13.24-12.2-98.62,52.35-146.19,77.1-56.76,160.98-28.64,201.8,26.05,42.15,56.46,34.95,160.51-28.04,205.53Z"/>
</svg>